<?xml version="1.0" standalone="no"?> <!DOCTYPE svg PUBLIC "-//W3C//DTD SVG 1.0//EN" "http://www.w3.org/TR/2001/REC-SVG-20010904/DTD/svg10.dtd" > <svg xmlns="http://www.w3.org/2000/svg" width="100%" height="100%">
<defs >
<font horiz-adv-x="501" ><font-face
    font-family="Dot Matrix"
    units-per-em="1000"
    panose-1="0 0 4 0 0 0 0 0 0 0"
    ascent="800"
    descent="-200"
    alphabetic="0" />
<missing-glyph horiz-adv-x="500" d="M63 0V800H438V0H63ZM125 63H375V738H125V63Z" />
<glyph unicode=" " glyph-name="space" horiz-adv-x="599" />
<glyph unicode="!" glyph-name="exclam" horiz-adv-x="198" d="M0 648Q0 668 15 682T51 697Q72 697 87 683T102 648Q102 628 87 614T51 599Q30 599 15 613T0 648ZM0 550Q0 570 15 584T51 599Q72 599 87 585T102 550Q102 529 87 515T51 500Q30 500 15 514T0 550ZM0
450Q0 470 14 485T50 500Q71 500 85 485T100 450Q100 429 86 414T50 399Q29 399 15 414T0 450ZM0 349Q0 369 14 384T50 399Q71 399 85 384T100 349Q100 328 86 313T50 298Q29 298 15 313T0 349ZM0 249Q0 269 15 283T51 298Q72 298 87 284T102 249Q102 228 87 214T51
199Q30 199 15 213T0 249ZM0 49Q0 69 15 83T51 97Q72 97 87 83T102 49Q102 28 87 14T51 0Q30 0 15 14T0 49Z" />
<glyph unicode="&quot;" glyph-name="quotedbl" horiz-adv-x="399" d="M0 649Q0 669 15 683T52 697Q73 697 88 683T103 649Q103 629 88 615T52 601Q30 601 15 615T0 649ZM0 551Q0 571 15 586T52 601Q73 601 88 586T103 551Q103 530 88 515T52 500Q30 500 15 515T0
551ZM199 648Q199 668 214 682T251 697Q272 697 287 683T302 648Q302 628 287 614T251 599Q229 599 214 613T199 648ZM198 549Q198 570 213 584T250 599Q272 599 287 585T302 549Q302 528 287 514T250 499Q228 499 213 513T198 549Z" />
<glyph unicode="#" glyph-name="numbersign" horiz-adv-x="600" d="M0 449Q0 469 15 483T51 498Q72 498 87 484T102 449Q102 428 87 414T51 399Q30 399 15 413T0 449ZM102 449Q102 470 116 484T152 499Q173 499 187 485T202 449Q202 428 188 414T152 399Q131 399
117 413T102 449ZM202 451Q202 471 216 485T252 499Q273 499 287 485T302 451Q302 430 288 416T252 402Q231 402 217 416T202 451ZM302 451Q302 471 316 485T352 499Q372 499 386 485T401 451Q401 430 387 416T352 402Q331 402 317 416T302 451ZM401 449Q401 469
416 484T452 499Q472 499 487 484T502 449Q502 428 487 413T452 398Q431 398 416 413T401 449ZM298 350Q298 372 313 387T350 402Q372 402 387 387T402 350Q402 328 387 313T350 298Q328 298 313 313T298 350ZM298 249Q298 269 313 283T350 298Q372 298 387 284T402
249Q402 228 387 214T350 199Q328 199 313 213T298 249ZM402 248Q402 268 416 282T452 296Q473 296 487 282T502 248Q502 227 488 213T452 199Q431 199 417 213T402 248ZM299 148Q299 168 314 182T352 197Q373 197 388 183T404 148Q404 128 389 114T352 99Q330
99 315 113T299 148ZM200 249Q200 269 214 283T250 297Q270 297 284 283T299 249Q299 229 285 215T250 201Q229 201 215 215T200 249ZM100 250Q100 270 114 284T150 299Q171 299 185 285T200 250Q200 230 186 216T150 201Q129 201 115 215T100 250ZM0 250Q0 270
14 284T50 299Q71 299 85 285T100 250Q100 230 86 216T50 201Q29 201 15 215T0 250ZM98 150Q98 169 113 183T149 197Q170 197 185 183T200 150Q200 130 185 116T149 102Q128 102 113 116T98 150ZM102 349Q102 369 116 383T152 397Q172 397 186 383T201 349Q201
328 187 314T152 300Q131 300 117 314T102 349ZM103 551Q103 571 117 585T152 599Q172 599 186 585T201 551Q201 532 187 518T152 503Q132 503 118 517T103 551ZM301 549Q301 569 315 583T351 597Q372 597 386 583T401 549Q401 528 387 514T351 500Q330 500 316
514T301 549Z" />
<glyph unicode="$" glyph-name="dollar" horiz-adv-x="500" d="M199 650Q199 669 214 683T251 697Q272 697 287 683T302 650Q302 630 287 616T251 602Q229 602 214 616T199 650ZM302 551Q302 572 316 587T352 602Q372 602 386 587T401 551Q401 529 387 514T352
499Q331 499 317 514T302 551ZM200 550Q200 570 214 584T249 599Q269 599 283 585T297 550Q297 529 283 515T249 500Q228 500 214 514T200 550ZM99 549Q99 569 114 584T150 599Q170 599 185 584T200 549Q200 528 185 513T150 498Q129 498 114 513T99 549ZM0 450Q0
470 14 484T50 498Q70 498 84 484T99 450Q99 429 85 415T50 401Q29 401 15 415T0 450ZM96 349Q96 369 111 383T149 398Q170 398 185 384T201 349Q201 329 186 315T149 300Q127 300 112 314T96 349ZM201 350Q201 370 216 384T253 399Q274 399 289 385T304 350Q304
329 289 315T253 300Q231 300 216 314T201 350ZM302 250Q302 270 316 285T352 300Q372 300 386 285T401 250Q401 229 387 214T352 199Q331 199 317 214T302 250ZM200 149Q200 167 214 180T250 194Q271 194 285 181T300 149Q300 130 286 117T250 103Q229 103 215
116T200 149ZM99 150Q99 169 114 183T150 197Q170 197 185 183T200 150Q200 131 185 117T150 103Q129 103 114 117T99 150ZM0 149Q0 169 14 183T50 197Q70 197 84 183T99 149Q99 128 85 114T50 100Q29 100 15 114T0 149ZM98 50Q98 70 113 84T151 99Q172 99 187
85T203 50Q203 29 188 15T151 0Q129 0 114 14T98 50Z" />
<glyph unicode="%" glyph-name="percent" horiz-adv-x="600" d="M0 649Q0 669 15 683T51 697Q72 697 87 683T102 649Q102 629 87 615T51 601Q30 601 15 615T0 649ZM102 550Q102 571 116 586T151 601Q171 601 185 586T200 550Q200 528 186 513T151 498Q131 498
117 513T102 550ZM104 648Q104 668 118 682T153 697Q173 697 187 683T202 648Q202 628 188 614T153 599Q133 599 119 613T104 648ZM0 547Q0 568 15 582T51 597Q71 597 86 583T101 547Q101 526 86 512T51 497Q30 497 15 511T0 547ZM400 649Q400 669 415 683T451
697Q472 697 487 683T502 649Q502 629 487 615T451 601Q430 601 415 615T400 649ZM398 551Q398 572 413 586T450 601Q472 601 487 587T502 551Q502 530 487 516T450 501Q428 501 413 515T398 551ZM301 450Q301 471 315 486T350 501Q370 501 384 486T398 450Q398
428 384 413T350 398Q329 398 315 413T301 450ZM200 349Q200 369 215 383T251 398Q271 398 286 384T301 349Q301 329 286 315T251 300Q230 300 215 314T200 349ZM99 251Q99 271 114 285T150 300Q170 300 185 286T200 251Q200 230 185 216T150 201Q129 201 114 215T99
251ZM0 152Q0 172 14 187T50 202Q71 202 85 187T100 152Q100 131 86 116T50 101Q29 101 15 116T0 152ZM0 49Q0 69 15 83T52 98Q74 98 89 84T104 49Q104 29 89 15T52 0Q30 0 15 14T0 49ZM297 49Q297 69 312 83T350 97Q371 97 386 83T402 49Q402 28 387 14T350 0Q328
0 313 14T297 49ZM402 148Q402 169 416 184T452 199Q472 199 486 184T501 148Q501 127 487 112T452 97Q431 97 417 112T402 148ZM401 49Q401 69 415 83T450 97Q470 97 484 83T499 49Q499 28 485 14T450 0Q430 0 416 14T401 49ZM298 147Q298 168 313 182T350 197Q371
197 386 183T401 147Q401 126 386 112T350 97Q328 97 313 111T298 147Z" />
<glyph unicode="&amp;" glyph-name="ampersand" horiz-adv-x="600" d="M99 649Q99 669 114 683T150 697Q171 697 186 683T201 649Q201 628 186 614T150 600Q129 600 114 614T99 649ZM201 550Q201 571 215 585T251 600Q272 600 286 586T301 550Q301 529 287 515T251
500Q230 500 216 514T201 550ZM198 450Q198 470 213 485T250 500Q271 500 286 485T301 450Q301 429 286 414T250 399Q228 399 213 414T198 450ZM99 349Q99 370 113 384T149 399Q169 399 183 385T198 349Q198 328 184 314T149 299Q128 299 114 313T99 349ZM0 250Q0
270 14 284T50 299Q70 299 84 285T99 250Q99 230 85 216T50 201Q29 201 15 215T0 250ZM0 150Q0 171 15 186T52 201Q73 201 88 186T103 150Q103 129 88 114T52 99Q30 99 15 114T0 150ZM0 448Q0 468 15 482T51 497Q71 497 86 483T101 448Q101 428 86 414T51 399Q30
399 15 413T0 448ZM0 549Q0 570 15 584T51 599Q71 599 86 585T101 549Q101 529 86 514T51 499Q30 499 15 514T0 549ZM199 248Q199 267 214 281T251 295Q273 295 288 281T303 248Q303 228 288 214T251 200Q229 200 214 214T199 248ZM303 150Q303 170 317 185T353
200Q373 200 387 185T402 150Q402 129 388 114T353 99Q332 99 318 114T303 150ZM402 50Q402 70 417 84T453 99Q473 99 488 85T503 50Q503 29 488 15T453 0Q432 0 417 14T402 50ZM399 248Q399 267 414 281T451 295Q472 295 487 281T502 248Q502 228 487 214T451
200Q429 200 414 214T399 248ZM201 50Q201 70 216 84T252 99Q272 99 287 85T302 50Q302 29 287 15T252 0Q231 0 216 14T201 50ZM100 49Q100 69 114 83T150 97Q170 97 184 83T199 49Q199 28 185 14T150 0Q129 0 115 14T100 49Z" />
<glyph unicode="&apos;" glyph-name="quotesingle" horiz-adv-x="204" d="M0 752Q0 772 14 786T49 800Q69 800 83 786T97 752Q97 732 83 718T49 704Q28 704 14 718T0 752ZM0 654Q0 674 14 689T49 704Q69 704 83 689T97 654Q97 633 83 618T49 603Q28 603 14 618T0 654Z" />
<glyph unicode="(" glyph-name="parenleft" horiz-adv-x="399" d="M200 649Q200 669 214 683T250 697Q270 697 284 683T299 649Q299 628 285 614T250 600Q229 600 215 614T200 649ZM98 550Q98 570 113 585T149 600Q170 600 185 585T200 550Q200 529 185 514T149
499Q128 499 113 514T98 550ZM0 450Q0 470 14 484T49 499Q69 499 83 485T98 450Q98 429 84 415T49 400Q29 400 15 414T0 450ZM0 349Q0 370 15 385T52 400Q73 400 88 385T103 349Q103 328 88 313T52 298Q30 298 15 313T0 349ZM0 248Q0 269 15 283T52 298Q73 298
88 284T103 248Q103 227 88 213T52 198Q30 198 15 212T0 248ZM98 150Q98 170 113 184T151 199Q172 199 187 185T203 150Q203 129 188 115T151 100Q129 100 114 114T98 150ZM203 50Q203 71 217 85T253 100Q273 100 287 86T302 50Q302 29 288 15T253 0Q232 0 218
14T203 50Z" />
<glyph unicode=")" glyph-name="parenright" horiz-adv-x="402" d="M0 649Q0 669 15 683T51 697Q71 697 86 683T101 649Q101 628 86 614T51 600Q30 600 15 614T0 649ZM101 551Q101 571 115 585T151 600Q172 600 186 586T201 551Q201 531 187 517T151 502Q130 502
116 516T101 551ZM200 451Q200 472 215 487T252 502Q273 502 288 487T303 451Q303 429 288 414T252 399Q230 399 215 414T200 451ZM198 349Q198 370 213 384T251 399Q272 399 287 385T303 349Q303 328 288 314T251 299Q229 299 214 313T198 349ZM198 249Q198 269
213 284T251 299Q272 299 287 284T303 249Q303 228 288 213T251 198Q229 198 214 213T198 249ZM99 150Q99 171 114 185T151 200Q172 200 187 186T202 150Q202 129 187 115T151 100Q129 100 114 114T99 150ZM0 50Q0 71 14 85T50 100Q70 100 84 86T99 50Q99 29 85
15T50 0Q29 0 15 14T0 50Z" />
<glyph unicode="*" glyph-name="asterisk" horiz-adv-x="600" d="M0 347Q0 366 15 379T51 393Q72 393 87 380T102 347Q102 327 87 314T51 300Q30 300 15 313T0 347ZM102 348Q102 368 116 382T152 396Q173 396 187 382T202 348Q202 328 188 314T152 300Q131 300
117 314T102 348ZM202 348Q202 368 216 382T251 396Q271 396 285 382T300 348Q300 328 286 314T251 300Q231 300 217 314T202 348ZM300 349Q300 369 315 383T351 397Q372 397 387 383T402 349Q402 328 387 314T351 300Q330 300 315 314T300 349ZM402 349Q402 369
416 383T452 397Q473 397 487 383T502 349Q502 329 488 315T452 301Q431 301 417 315T402 349ZM297 248Q297 268 312 282T350 296Q372 296 387 282T403 248Q403 227 388 213T350 199Q328 199 313 213T297 248ZM403 149Q403 170 417 184T452 199Q472 199 486 185T501
149Q501 128 487 114T452 99Q432 99 418 113T403 149ZM98 250Q98 270 113 284T150 299Q172 299 187 285T202 250Q202 229 187 215T150 200Q128 200 113 214T98 250ZM0 151Q0 171 14 185T49 200Q69 200 83 186T98 151Q98 131 84 117T49 102Q29 102 15 116T0 151ZM202
448Q202 469 217 484T253 500Q273 500 288 485T303 448Q303 426 288 411T253 395Q232 395 217 410T202 448ZM198 549Q198 569 213 583T251 597Q272 597 287 583T303 549Q303 528 288 514T251 500Q229 500 214 514T198 549Z" />
<glyph unicode="+" glyph-name="plus" horiz-adv-x="600" d="M196 546Q196 565 211 578T248 592Q270 592 285 579T300 546Q300 526 285 513T248 499Q226 499 211 512T196 546ZM197 450Q197 470 212 484T249 499Q270 499 285 485T300 450Q300 430 285 416T249 401Q227
401 212 415T197 450ZM197 350Q197 371 212 386T249 401Q270 401 285 386T300 350Q300 329 285 314T249 299Q227 299 212 314T197 350ZM300 350Q300 371 314 386T350 401Q371 401 385 386T400 350Q400 329 386 314T350 299Q329 299 315 314T300 350ZM400 351Q400
371 415 386T451 401Q472 401 487 386T502 351Q502 330 487 315T451 300Q430 300 415 315T400 351ZM202 247Q202 266 216 280T252 294Q272 294 286 280T301 247Q301 228 287 214T252 200Q231 200 217 214T202 247ZM201 150Q201 171 215 185T251 200Q272 200 286
186T301 150Q301 129 287 115T251 100Q230 100 216 114T201 150ZM97 350Q97 370 111 384T146 398Q166 398 180 384T194 350Q194 329 180 315T146 301Q125 301 111 315T97 350ZM0 350Q0 370 14 384T49 399Q69 399 83 385T97 350Q97 330 83 316T49 301Q28 301 14
315T0 350Z" />
<glyph unicode="," glyph-name="comma" horiz-adv-x="303" d="M0 49Q0 69 15 83T52 97Q73 97 88 83T103 49Q103 28 88 14T52 0Q30 0 15 14T0 49ZM103 148Q103 168 117 183T153 198Q174 198 188 183T203 148Q203 127 189 112T153 97Q132 97 118 112T103 148ZM101
47Q101 66 116 80T153 94Q174 94 189 80T204 47Q204 27 189 14T153 0Q131 0 116 13T101 47ZM0 148Q0 168 15 183T51 198Q71 198 86 183T101 148Q101 127 86 112T51 97Q30 97 15 112T0 148ZM97 -50Q97 -29 112 -15T151 0Q173 0 188 -14T204 -50Q204 -71 189 -85T151
-100Q128 -100 113 -86T97 -50ZM0 -150Q0 -130 15 -116T52 -102Q73 -102 88 -116T103 -150Q103 -170 88 -184T52 -198Q30 -198 15 -184T0 -150Z" />
<glyph unicode="-" glyph-name="hyphen" horiz-adv-x="500" d="M0 348Q0 368 15 382T51 396Q72 396 87 382T102 348Q102 328 87 314T51 300Q30 300 15 314T0 348ZM102 350Q102 371 116 385T152 400Q173 400 187 386T202 350Q202 329 188 315T152 300Q131 300 117
314T102 350ZM202 350Q202 370 216 385T252 400Q273 400 287 385T302 350Q302 329 288 314T252 299Q231 299 217 314T202 350ZM302 348Q302 368 317 382T353 396Q374 396 389 382T404 348Q404 327 389 313T353 299Q332 299 317 313T302 348Z" />
<glyph unicode="." glyph-name="period" horiz-adv-x="300" d="M0 48Q0 68 15 82T51 96Q72 96 87 82T102 48Q102 28 87 14T51 0Q30 0 15 14T0 48ZM102 48Q102 68 116 82T152 96Q173 96 187 82T202 48Q202 28 188 14T152 0Q131 0 117 14T102 48ZM0 149Q0 169 15
183T52 198Q73 198 88 184T103 149Q103 128 88 114T52 99Q30 99 15 113T0 149ZM103 148Q103 169 117 183T153 198Q174 198 188 184T203 148Q203 127 189 113T153 98Q132 98 118 112T103 148Z" />
<glyph unicode="/" glyph-name="slash" horiz-adv-x="600" d="M0 48Q0 68 15 82T52 96Q73 96 88 82T103 48Q103 28 88 14T52 0Q30 0 15 14T0 48ZM0 147Q0 168 15 183T52 198Q73 198 88 183T103 147Q103 126 88 111T52 96Q30 96 15 111T0 147ZM98 248Q98 268 113
283T150 298Q172 298 187 283T202 248Q202 227 187 212T150 197Q128 197 113 212T98 248ZM202 349Q202 369 217 384T253 399Q273 399 288 384T303 349Q303 328 288 313T253 298Q232 298 217 313T202 349ZM303 449Q303 469 317 483T353 498Q374 498 388 484T403
449Q403 428 389 414T353 399Q332 399 318 413T303 449ZM403 549Q403 569 417 584T453 599Q474 599 488 584T503 549Q503 528 489 513T453 498Q432 498 418 513T403 549ZM399 648Q399 668 414 682T451 697Q473 697 488 683T503 648Q503 628 488 614T451 599Q429
599 414 613T399 648Z" />
<glyph unicode="0" glyph-name="zero" horiz-adv-x="375" d="M98 650Q98 669 113 683T152 697Q174 697 189 683T205 650Q205 630 190 616T152 602Q129 602 114 616T98 650ZM200 550Q200 571 215 586T251 602Q272 602 287 587T302 550Q302 528 287 513T251 498Q230
498 215 513T200 550ZM199 448Q199 468 214 482T251 497Q272 497 287 483T302 448Q302 428 287 414T251 399Q229 399 214 413T199 448ZM199 351Q199 371 214 385T251 399Q272 399 287 385T302 351Q302 330 287 316T251 302Q229 302 214 316T199 351ZM198 250Q198
270 213 285T250 300Q272 300 287 285T302 250Q302 229 287 214T250 199Q228 199 213 214T198 250ZM198 149Q198 170 213 184T251 199Q272 199 287 185T303 149Q303 128 288 114T251 99Q229 99 214 113T198 149ZM98 50Q98 70 113 84T150 99Q172 99 187 85T202 50Q202
29 187 15T150 0Q128 0 113 14T98 50ZM0 149Q0 170 14 184T49 199Q69 199 83 185T98 149Q98 128 84 114T49 99Q29 99 15 113T0 149ZM0 250Q0 270 15 285T52 300Q73 300 88 285T103 250Q103 229 88 214T52 199Q30 199 15 214T0 250ZM0 350Q0 370 15 384T52 399Q73
399 88 385T103 350Q103 329 88 315T52 300Q30 300 15 314T0 350ZM0 450Q0 470 15 485T52 500Q73 500 88 485T103 450Q103 429 88 414T52 399Q30 399 15 414T0 450ZM0 549Q0 569 15 583T52 597Q73 597 88 583T103 549Q103 528 88 514T52 500Q30 500 15 514T0 549Z"
/>
<glyph unicode="1" glyph-name="one" horiz-adv-x="375" d="M101 649Q101 669 116 683T153 697Q174 697 189 683T204 649Q204 629 189 615T153 601Q131 601 116 615T101 649ZM98 550Q98 571 113 586T151 601Q173 601 188 586T204 550Q204 529 189 514T151 499Q129
499 114 514T98 550ZM98 450Q98 470 113 484T152 499Q174 499 189 485T205 450Q205 429 190 415T152 400Q129 400 114 414T98 450ZM97 350Q97 371 113 385T151 400Q173 400 189 386T205 350Q205 329 189 315T151 300Q129 300 113 314T97 350ZM97 249Q97 270 113
285T151 300Q173 300 189 285T205 249Q205 228 189 213T151 198Q129 198 113 213T97 249ZM98 147Q98 168 113 183T152 198Q174 198 189 183T205 147Q205 126 190 111T152 96Q129 96 114 111T98 147ZM98 48Q98 68 113 82T152 96Q174 96 189 82T205 48Q205 28 190
14T152 0Q129 0 114 14T98 48ZM204 48Q204 68 219 82T255 96Q276 96 291 82T306 48Q306 28 291 14T255 0Q234 0 219 14T204 48ZM0 49Q0 69 14 83T50 98Q71 98 85 84T100 49Q100 29 86 15T50 0Q29 0 15 14T0 49ZM0 548Q0 567 15 581T51 595Q72 595 87 581T102 548Q102
528 87 514T51 500Q30 500 15 514T0 548Z" />
<glyph unicode="2" glyph-name="two" horiz-adv-x="500" d="M0 49Q0 69 15 83T52 98Q73 98 88 84T103 49Q103 29 88 15T52 0Q30 0 15 14T0 49ZM103 49Q103 69 117 83T153 98Q173 98 187 84T202 49Q202 29 188 15T153 0Q132 0 118 14T103 49ZM202 49Q202 69 217
83T253 97Q273 97 288 83T303 49Q303 28 288 14T253 0Q232 0 217 14T202 49ZM303 49Q303 69 318 83T354 97Q375 97 390 83T405 49Q405 28 390 14T354 0Q333 0 318 14T303 49ZM0 147Q0 167 15 181T51 196Q71 196 86 182T101 147Q101 126 86 112T51 97Q30 97 15 111T0
147ZM96 249Q96 270 111 285T149 300Q171 300 186 285T202 249Q202 227 187 212T149 197Q127 197 112 212T96 249ZM202 349Q202 369 217 383T253 398Q273 398 288 384T303 349Q303 329 288 315T253 300Q232 300 217 314T202 349ZM303 449Q303 470 317 485T353 500Q374
500 388 485T403 449Q403 428 389 413T353 398Q332 398 318 413T303 449ZM298 550Q298 570 313 584T351 599Q372 599 387 585T403 550Q403 529 388 515T351 500Q329 500 314 514T298 550ZM201 648Q201 668 215 682T250 697Q270 697 284 683T298 648Q298 628 284
614T250 599Q229 599 215 613T201 648ZM99 648Q99 668 114 682T150 697Q171 697 186 683T201 648Q201 628 186 614T150 599Q129 599 114 613T99 648ZM0 550Q0 570 14 584T50 599Q70 599 84 585T99 550Q99 529 85 515T50 500Q29 500 15 514T0 550Z" />
<glyph unicode="3" glyph-name="three" horiz-adv-x="500" d="M0 548Q0 568 15 582T52 597Q74 597 89 583T104 548Q104 528 89 514T52 499Q30 499 15 513T0 548ZM97 649Q97 669 112 683T150 697Q172 697 187 683T203 649Q203 628 188 614T150 600Q128 600 113
614T97 649ZM203 648Q203 668 217 682T253 697Q274 697 288 683T303 648Q303 627 289 613T253 598Q232 598 218 612T203 648ZM303 549Q303 569 317 584T353 599Q373 599 387 584T402 549Q402 528 388 513T353 498Q332 498 318 513T303 549ZM298 448Q298 469 313
483T350 498Q372 498 387 484T402 448Q402 427 387 413T350 398Q328 398 313 412T298 448ZM200 349Q200 369 214 383T249 398Q269 398 283 384T298 349Q298 328 284 314T249 299Q229 299 215 313T200 349ZM299 249Q299 270 314 285T352 300Q374 300 389 285T405
249Q405 227 390 212T352 197Q330 197 315 212T299 249ZM298 147Q298 168 313 182T352 197Q374 197 389 183T405 147Q405 126 390 112T352 97Q329 97 314 111T298 147ZM198 49Q198 69 212 83T248 97Q269 97 283 83T298 49Q298 28 284 14T248 0Q227 0 213 14T198
49ZM99 49Q99 69 113 83T149 97Q169 97 183 83T198 49Q198 28 184 14T149 0Q128 0 114 14T99 49ZM0 148Q0 168 14 183T50 198Q70 198 84 183T99 148Q99 127 85 112T50 97Q29 97 15 112T0 148Z" />
<glyph unicode="4" glyph-name="four" horiz-adv-x="500" d="M0 350Q0 370 15 384T51 398Q72 398 87 384T102 350Q102 330 87 316T51 302Q30 302 15 316T0 350ZM102 349Q102 369 116 383T152 398Q172 398 186 384T201 349Q201 328 187 314T152 299Q131 299 117
313T102 349ZM201 350Q201 370 216 385T252 400Q273 400 288 385T303 350Q303 329 288 314T252 299Q231 299 216 314T201 350ZM303 350Q303 371 317 385T353 400Q374 400 388 386T403 350Q403 329 389 315T353 300Q332 300 318 314T303 350ZM299 249Q299 270 314
285T351 300Q373 300 388 285T403 249Q403 228 388 213T351 198Q329 198 314 213T299 249ZM299 148Q299 169 314 183T351 198Q372 198 387 184T402 148Q402 127 387 113T351 98Q329 98 314 112T299 148ZM298 49Q298 69 313 83T350 98Q372 98 387 84T402 49Q402
29 387 15T350 0Q328 0 313 14T298 49ZM0 453Q0 473 14 487T50 501Q71 501 85 487T100 453Q100 432 86 418T50 404Q29 404 15 418T0 453ZM100 550Q100 570 115 584T151 599Q171 599 186 585T201 550Q201 530 186 516T151 501Q130 501 115 515T100 550ZM201 648Q201
668 216 682T252 697Q273 697 288 683T303 648Q303 628 288 614T252 599Q231 599 216 613T201 648ZM303 648Q303 668 317 682T353 697Q373 697 387 683T402 648Q402 628 388 614T353 599Q332 599 318 613T303 648ZM298 550Q298 570 313 584T350 599Q372 599 387
585T402 550Q402 530 387 516T350 501Q328 501 313 515T298 550ZM298 450Q298 471 313 486T351 501Q372 501 387 486T403 450Q403 429 388 414T351 399Q329 399 314 414T298 450Z" />
<glyph unicode="5" glyph-name="five" horiz-adv-x="500" d="M0 648Q0 668 15 682T51 697Q72 697 87 683T102 648Q102 627 87 613T51 598Q30 598 15 612T0 648ZM102 648Q102 668 117 682T153 697Q174 697 189 683T204 648Q204 627 189 613T153 598Q132 598 117
612T102 648ZM204 649Q204 669 218 683T254 697Q274 697 288 683T303 649Q303 628 289 614T254 600Q233 600 219 614T204 649ZM303 649Q303 669 317 683T353 697Q374 697 388 683T403 649Q403 628 389 614T353 600Q332 600 318 614T303 649ZM0 548Q0 569 15 583T51
598Q72 598 87 584T102 548Q102 527 87 513T51 498Q30 498 15 512T0 548ZM0 450Q0 470 15 484T51 498Q72 498 87 484T102 450Q102 429 87 415T51 401Q30 401 15 415T0 450ZM105 448Q105 469 119 483T154 498Q174 498 188 484T202 448Q202 427 188 413T154 398Q133
398 119 412T105 448ZM201 448Q201 468 216 482T253 497Q275 497 290 483T305 448Q305 427 290 413T253 398Q231 398 216 412T201 448ZM303 354Q303 375 318 390T354 406Q374 406 389 391T404 354Q404 332 389 317T354 301Q333 301 318 316T303 354ZM297 249Q297
270 312 285T351 301Q373 301 388 286T404 249Q404 227 389 212T351 196Q328 196 313 211T297 249ZM297 145Q297 166 313 181T352 196Q375 196 391 181T407 145Q407 124 391 109T352 94Q329 94 313 109T297 145ZM201 46Q201 64 216 77T252 91Q273 91 288 78T303
46Q303 27 288 14T252 0Q231 0 216 13T201 46ZM97 50Q97 70 112 84T149 99Q171 99 186 85T201 50Q201 29 186 15T149 0Q127 0 112 14T97 50ZM0 149Q0 170 14 184T49 199Q69 199 83 185T97 149Q97 128 83 114T49 99Q28 99 14 113T0 149Z" />
<glyph unicode="6" glyph-name="six" horiz-adv-x="500" d="M199 649Q199 669 213 683T249 697Q269 697 283 683T298 649Q298 629 284 615T249 601Q228 601 214 615T199 649ZM99 649Q99 669 113 683T149 697Q170 697 184 683T199 649Q199 629 185 615T149 601Q128
601 114 615T99 649ZM0 548Q0 568 15 582T52 596Q73 596 88 582T103 548Q103 528 88 514T52 500Q30 500 15 514T0 548ZM0 450Q0 471 15 485T52 500Q73 500 88 486T103 450Q103 429 88 415T52 400Q30 400 15 414T0 450ZM0 350Q0 371 15 385T52 400Q73 400 88 386T103
350Q103 329 88 315T52 300Q30 300 15 314T0 350ZM0 249Q0 270 15 285T52 300Q73 300 88 285T103 249Q103 228 88 213T52 198Q30 198 15 213T0 249ZM0 148Q0 168 15 183T52 198Q73 198 88 183T103 148Q103 127 88 112T52 97Q30 97 15 112T0 148ZM103 49Q103 69
117 83T152 97Q172 97 186 83T201 49Q201 28 187 14T152 0Q132 0 118 14T103 49ZM201 49Q201 69 216 83T252 97Q272 97 287 83T302 49Q302 28 287 14T252 0Q231 0 216 14T201 49ZM302 147Q302 168 316 182T352 197Q373 197 387 183T402 147Q402 126 388 112T352
97Q331 97 317 111T302 147ZM296 247Q296 267 311 281T349 296Q371 296 386 282T402 247Q402 226 387 212T349 197Q327 197 312 211T296 247ZM296 347Q296 368 311 383T349 398Q371 398 386 383T402 347Q402 326 387 311T349 296Q327 296 312 311T296 347ZM203
450Q203 470 217 484T250 499Q269 499 283 485T297 450Q297 429 283 415T250 400Q231 400 217 414T203 450ZM100 450Q100 470 115 484T152 499Q173 499 188 485T203 450Q203 429 188 415T152 400Q130 400 115 414T100 450Z" />
<glyph unicode="7" glyph-name="seven" horiz-adv-x="500" d="M0 649Q0 669 15 683T51 697Q72 697 87 683T102 649Q102 628 87 614T51 600Q30 600 15 614T0 649ZM102 649Q102 669 116 683T152 697Q173 697 187 683T202 649Q202 628 188 614T152 600Q131 600 117
614T102 649ZM202 649Q202 669 216 683T252 697Q272 697 286 683T301 649Q301 628 287 614T252 600Q231 600 217 614T202 649ZM301 649Q301 669 316 683T352 697Q373 697 388 683T403 649Q403 628 388 614T352 600Q331 600 316 614T301 649ZM300 548Q300 568 315
582T352 596Q373 596 388 582T403 548Q403 527 388 513T352 499Q330 499 315 513T300 548ZM300 449Q300 470 315 484T351 499Q372 499 387 485T402 449Q402 428 387 414T351 399Q330 399 315 413T300 449ZM196 350Q196 370 211 384T249 399Q271 399 286 385T302
350Q302 329 287 315T249 300Q227 300 212 314T196 350ZM98 250Q98 270 112 285T147 300Q167 300 181 285T196 250Q196 229 182 214T147 199Q127 199 113 214T98 250ZM0 149Q0 169 14 184T49 199Q69 199 83 184T98 149Q98 128 84 113T49 98Q29 98 15 113T0 149ZM0
49Q0 69 15 83T51 98Q71 98 86 84T101 49Q101 29 86 15T51 0Q30 0 15 14T0 49Z" />
<glyph unicode="8" glyph-name="eight" horiz-adv-x="500" d="M97 648Q97 668 112 682T150 697Q172 697 187 683T203 648Q203 628 188 614T150 599Q128 599 113 613T97 648ZM203 648Q203 668 217 682T253 697Q274 697 288 683T303 648Q303 628 289 614T253 599Q232
599 218 613T203 648ZM304 549Q304 570 318 585T354 600Q375 600 389 585T404 549Q404 528 390 513T354 498Q333 498 319 513T304 549ZM298 450Q298 470 313 484T351 498Q373 498 388 484T404 450Q404 430 389 416T351 402Q329 402 314 416T298 450ZM198 351Q198
372 212 387T248 402Q269 402 283 387T298 351Q298 330 284 315T248 300Q227 300 213 315T198 351ZM98 349Q98 369 112 383T148 398Q169 398 183 384T198 349Q198 329 184 315T148 300Q127 300 113 314T98 349ZM0 447Q0 467 14 481T49 495Q69 495 83 481T98 447Q98
426 84 412T49 398Q29 398 15 412T0 447ZM0 547Q0 568 15 583T52 598Q74 598 89 583T104 547Q104 525 89 510T52 495Q30 495 15 510T0 547ZM0 250Q0 270 14 284T50 299Q70 299 84 285T99 250Q99 229 85 215T50 200Q29 200 15 214T0 250ZM0 149Q0 170 15 185T51
200Q71 200 86 185T101 149Q101 127 86 112T51 97Q30 97 15 112T0 149ZM101 49Q101 69 116 83T152 97Q173 97 188 83T203 49Q203 28 188 14T152 0Q131 0 116 14T101 49ZM203 49Q203 69 217 83T253 98Q274 98 288 84T303 49Q303 29 289 15T253 0Q232 0 218 14T203
49ZM303 148Q303 169 317 183T353 198Q373 198 387 184T402 148Q402 127 388 113T353 98Q332 98 318 112T303 148ZM299 249Q299 269 314 284T351 299Q372 299 387 284T402 249Q402 228 387 213T351 198Q329 198 314 213T299 249Z" />
<glyph unicode="9" glyph-name="nine" horiz-adv-x="500" d="M198 251Q198 272 212 287T248 302Q268 302 282 287T297 251Q297 230 283 215T248 200Q227 200 213 215T198 251ZM100 250Q100 270 114 284T149 299Q169 299 183 285T198 250Q198 229 184 215T149 200Q129
200 115 214T100 250ZM0 349Q0 370 14 384T50 399Q71 399 85 385T100 349Q100 328 86 314T50 299Q29 299 15 313T0 349ZM0 448Q0 468 15 482T52 497Q74 497 89 483T104 448Q104 428 89 414T52 399Q30 399 15 413T0 448ZM0 548Q0 568 15 583T52 598Q74 598 89 583T104
548Q104 527 89 512T52 497Q30 497 15 512T0 548ZM100 649Q100 669 115 683T152 697Q173 697 188 683T203 649Q203 629 188 615T152 601Q130 601 115 615T100 649ZM203 649Q203 669 218 683T254 697Q275 697 290 683T305 649Q305 629 290 615T254 601Q233 601 218
615T203 649ZM305 550Q305 571 319 586T354 601Q374 601 388 586T403 550Q403 528 389 513T354 498Q334 498 320 513T305 550ZM300 449Q300 469 315 483T352 498Q373 498 388 484T403 449Q403 428 388 414T352 399Q330 399 315 413T300 449ZM300 349Q300 370 315
384T353 399Q374 399 389 385T405 349Q405 328 390 314T353 299Q331 299 316 313T300 349ZM297 248Q297 269 313 284T351 299Q373 299 389 284T405 248Q405 226 389 211T351 196Q329 196 313 211T297 248ZM297 147Q297 167 312 181T350 196Q371 196 386 182T402
147Q402 126 387 112T350 97Q328 97 313 111T297 147ZM202 47Q202 66 216 80T251 94Q271 94 285 80T299 47Q299 28 285 14T251 0Q230 0 216 14T202 47ZM96 48Q96 68 111 82T149 96Q171 96 186 82T202 48Q202 28 187 14T149 0Q127 0 112 14T96 48Z" />
<glyph unicode=":" glyph-name="colon" horiz-adv-x="201" d="M0 350Q0 369 15 383T51 397Q72 397 87 383T102 350Q102 330 87 316T51 302Q30 302 15 316T0 350ZM0 48Q0 68 15 82T52 96Q73 96 88 82T103 48Q103 28 88 14T52 0Q30 0 15 14T0 48Z" />
<glyph unicode=";" glyph-name="semicolon" horiz-adv-x="300" d="M0 -51Q0 -30 15 -15T54 0Q76 0 91 -15T107 -51Q107 -71 92 -86T54 -101Q31 -101 16 -86T0 -51ZM98 49Q98 69 114 83T153 97Q175 97 191 83T207 49Q207 28 191 14T153 0Q130 0 114 14T98 49ZM98
348Q98 368 113 383T150 398Q171 398 186 383T201 348Q201 327 186 312T150 297Q128 297 113 312T98 348Z" />
<glyph unicode="&lt;" glyph-name="less" horiz-adv-x="399" d="M201 47Q201 66 215 80T250 94Q270 94 284 80T299 47Q299 28 285 14T250 0Q230 0 216 14T201 47ZM98 147Q98 169 113 184T150 200Q171 200 186 185T201 147Q201 125 186 110T150 94Q128 94 113 109T98
147ZM0 249Q0 269 14 283T49 298Q69 298 83 284T98 249Q98 229 84 215T49 200Q29 200 15 214T0 249ZM101 351Q101 371 116 386T153 401Q174 401 189 386T204 351Q204 330 189 315T153 300Q131 300 116 315T101 351ZM204 450Q204 470 218 484T253 499Q273 499 287
485T302 450Q302 430 288 416T253 401Q233 401 219 415T204 450Z" />
<glyph unicode="=" glyph-name="equal" horiz-adv-x="399" d="M0 450Q0 470 15 484T53 499Q75 499 90 485T106 450Q106 430 91 416T53 401Q31 401 16 415T0 450ZM106 449Q106 468 120 482T155 496Q175 496 189 482T204 449Q204 429 190 415T155 401Q135 401 121
415T106 449ZM204 447Q204 467 218 481T254 496Q275 496 289 482T304 447Q304 427 290 413T254 398Q233 398 219 412T204 447ZM0 248Q0 268 15 283T52 298Q73 298 88 283T103 248Q103 227 88 212T52 197Q30 197 15 212T0 248ZM103 249Q103 270 117 285T152 300Q172
300 186 285T201 249Q201 227 187 212T152 197Q132 197 118 212T103 249ZM201 248Q201 269 216 284T254 300Q276 300 291 285T307 248Q307 226 292 211T254 195Q232 195 217 210T201 248Z" />
<glyph unicode="&gt;" glyph-name="greater" horiz-adv-x="399" d="M0 49Q0 69 15 83T53 97Q75 97 90 83T106 49Q106 28 91 14T53 0Q31 0 16 14T0 49ZM106 149Q106 170 120 185T154 200Q173 200 187 185T201 149Q201 127 187 112T154 97Q134 97 120 112T106 149ZM201
249Q201 269 216 283T253 298Q274 298 289 284T304 249Q304 229 289 215T253 200Q231 200 216 214T201 249ZM98 351Q98 371 112 386T147 401Q167 401 181 386T196 351Q196 330 182 315T147 300Q127 300 113 315T98 351ZM0 450Q0 470 14 484T49 499Q69 499 83 485T98
450Q98 430 84 416T49 401Q29 401 15 415T0 450Z" />
<glyph unicode="?" glyph-name="question" horiz-adv-x="500" d="M0 548Q0 569 15 584T53 599Q75 599 90 584T106 548Q106 526 91 511T53 496Q31 496 16 511T0 548ZM96 646Q96 667 111 682T149 697Q171 697 186 682T202 646Q202 624 187 609T149 594Q127 594 112
609T96 646ZM202 646Q202 667 217 682T253 697Q274 697 289 682T304 646Q304 624 289 609T253 594Q232 594 217 609T202 646ZM299 549Q299 570 314 584T350 599Q370 599 385 585T400 549Q400 528 385 514T350 499Q329 499 314 513T299 549ZM299 448Q299 469 314
484T350 499Q370 499 385 484T400 448Q400 426 385 411T350 396Q329 396 314 411T299 448ZM202 346Q202 366 216 381T251 396Q271 396 285 381T299 346Q299 325 285 310T251 295Q230 295 216 310T202 346ZM99 346Q99 366 114 381T151 396Q172 396 187 381T202 346Q202
325 187 310T151 295Q129 295 114 310T99 346ZM94 245Q94 265 110 279T151 293Q174 293 190 279T207 245Q207 225 191 211T151 197Q127 197 111 211T94 245ZM101 49Q101 69 116 83T152 97Q172 97 187 83T202 49Q202 28 187 14T152 0Q131 0 116 14T101 49Z" />
<glyph unicode="@" glyph-name="at" horiz-adv-x="798" d="M1 144Q1 164 16 177T51 191Q72 191 86 178T101 144Q101 125 87 112T51 98Q31 98 16 111T1 144ZM1 243Q1 262 16 275T51 289Q72 289 86 276T101 243Q101 224 87 210T51 196Q31 196 16 210T1 243ZM3 342Q3
361 17 374T53 388Q74 388 88 375T103 342Q103 322 89 309T53 295Q32 295 18 308T3 342ZM109 45Q109 64 123 77T159 90Q179 90 193 77T208 45Q208 26 194 13T159 0Q138 0 124 13T109 45ZM208 47Q208 66 222 79T258 93Q278 93 292 80T307 47Q307 27 293 14T258 0Q237
0 223 13T208 47ZM205 243Q205 262 219 275T255 289Q275 289 289 276T304 243Q304 224 290 211T255 197Q234 197 220 210T205 243ZM205 340Q205 358 219 371T255 385Q275 385 289 372T304 340Q304 321 290 308T255 294Q234 294 220 307T205 340ZM0 444Q0 462 15
475T51 489Q71 489 86 476T101 444Q101 425 86 412T51 398Q30 398 15 411T0 444ZM307 241Q307 260 321 273T357 287Q377 287 391 274T406 241Q406 221 392 208T357 194Q336 194 322 207T307 241ZM406 244Q406 263 420 277T456 291Q477 291 491 277T506 244Q506
224 492 210T456 196Q435 196 421 210T406 244ZM407 348Q407 367 421 380T456 394Q476 394 490 381T505 348Q505 329 491 316T456 302Q436 302 422 315T407 348ZM405 451Q405 470 419 484T454 498Q474 498 488 484T502 451Q502 432 488 418T454 404Q433 404 419
418T405 451ZM306 451Q306 470 320 484T356 498Q376 498 390 484T405 451Q405 431 391 417T356 403Q335 403 321 417T306 451ZM210 451Q210 470 224 484T258 498Q278 498 292 484T306 451Q306 431 292 417T258 403Q238 403 224 417T210 451ZM0 541Q0 561 14 575T49
589Q69 589 83 575T98 541Q98 521 84 507T49 493Q29 493 15 507T0 541ZM98 639Q98 660 112 674T148 689Q169 689 183 675T198 639Q198 618 184 604T148 589Q127 589 113 603T98 639ZM198 641Q198 661 212 675T246 689Q266 689 280 675T294 641Q294 621 280 607T246
593Q226 593 212 607T198 641ZM294 641Q294 660 308 674T344 688Q365 688 379 674T394 641Q394 621 380 607T344 593Q323 593 309 607T294 641ZM393 642Q393 661 408 674T444 688Q464 688 479 675T494 642Q494 622 479 609T444 595Q423 595 408 608T393 642ZM514
239Q514 259 528 273T561 287Q580 287 594 273T608 239Q608 219 594 205T561 191Q542 191 528 205T514 239ZM608 350Q608 370 622 384T657 399Q677 399 691 385T706 350Q706 329 692 315T657 300Q637 300 623 314T608 350ZM603 449Q603 470 618 484T655 499Q676
499 691 485T706 449Q706 428 691 414T655 399Q633 399 618 413T603 449ZM605 558Q605 576 619 589T654 603Q674 603 688 590T703 558Q703 539 689 526T654 512Q634 512 620 525T605 558ZM495 647Q495 666 509 679T544 693Q564 693 578 680T593 647Q593 628 579
615T544 601Q524 601 510 614T495 647ZM317 45Q317 63 330 76T363 89Q381 89 394 76T408 45Q408 26 395 13T363 0Q344 0 331 13T317 45ZM408 46Q408 65 422 78T457 92Q477 92 491 79T506 46Q506 27 492 14T457 0Q437 0 423 13T408 46ZM507 46Q507 65 522 78T559
92Q581 92 596 79T611 46Q611 27 596 14T559 0Q537 0 522 13T507 46Z" />
<glyph unicode="A" glyph-name="A" horiz-adv-x="500" d="M0 49Q0 69 15 83T51 98Q72 98 87 84T102 49Q102 29 87 15T51 0Q30 0 15 14T0 49ZM0 149Q0 169 15 183T51 198Q72 198 87 184T102 149Q102 128 87 114T51 99Q30 99 15 113T0 149ZM0 247Q0 267 15 281T52
295Q74 295 89 281T104 247Q104 226 89 212T52 198Q30 198 15 212T0 247ZM0 346Q0 367 15 382T52 397Q74 397 89 382T104 346Q104 325 89 310T52 295Q30 295 15 310T0 346ZM0 448Q0 469 14 484T50 499Q71 499 85 484T100 448Q100 427 86 412T50 397Q29 397 15 412T0
448ZM0 548Q0 568 14 582T50 597Q71 597 85 583T100 548Q100 528 86 514T50 499Q29 499 15 513T0 548ZM108 347Q108 367 122 381T155 395Q174 395 188 381T202 347Q202 327 188 313T155 299Q136 299 122 313T108 347ZM202 350Q202 371 216 386T252 401Q273 401
287 386T302 350Q302 329 288 314T252 299Q231 299 217 314T202 350ZM302 351Q302 371 316 386T352 401Q373 401 387 386T402 351Q402 330 388 315T352 300Q331 300 317 315T302 351ZM299 248Q299 270 314 285T351 300Q372 300 387 285T402 248Q402 226 387 211T351
196Q329 196 314 211T299 248ZM299 148Q299 168 314 182T351 196Q373 196 388 182T403 148Q403 127 388 113T351 99Q329 99 314 113T299 148ZM299 50Q299 70 314 84T351 99Q373 99 388 85T403 50Q403 29 388 15T351 0Q329 0 314 14T299 50ZM300 450Q300 470 315
484T351 498Q372 498 387 484T402 450Q402 429 387 415T351 401Q330 401 315 415T300 450ZM297 548Q297 569 312 583T350 598Q371 598 386 584T402 548Q402 527 387 513T350 498Q328 498 313 512T297 548ZM200 648Q200 668 214 682T249 697Q269 697 283 683T297
648Q297 627 283 613T249 598Q228 598 214 612T200 648ZM98 648Q98 668 113 682T149 697Q170 697 185 683T200 648Q200 628 185 614T149 599Q128 599 113 613T98 648Z" />
<glyph unicode="B" glyph-name="B" horiz-adv-x="500" d="M0 49Q0 69 15 83T51 97Q72 97 87 83T102 49Q102 28 87 14T51 0Q30 0 15 14T0 49ZM102 49Q102 69 116 83T152 97Q172 97 186 83T201 49Q201 28 187 14T152 0Q131 0 117 14T102 49ZM201 49Q201 69 215 83T251
98Q272 98 286 84T301 49Q301 29 287 15T251 0Q230 0 216 14T201 49ZM302 148Q302 168 317 182T353 197Q374 197 389 183T404 148Q404 127 389 113T353 98Q332 98 317 112T302 148ZM297 248Q297 269 312 284T351 299Q373 299 388 284T404 248Q404 227 389 212T351
197Q328 197 313 212T297 248ZM200 348Q200 368 214 382T249 397Q269 397 283 383T297 348Q297 328 283 314T249 299Q228 299 214 313T200 348ZM101 348Q101 368 115 382T151 397Q171 397 185 383T200 348Q200 327 186 313T151 298Q130 298 116 312T101 348ZM0
348Q0 368 15 382T51 397Q71 397 86 383T101 348Q101 327 86 313T51 298Q30 298 15 312T0 348ZM0 447Q0 468 15 482T52 497Q74 497 89 483T104 447Q104 426 89 412T52 397Q30 397 15 411T0 447ZM0 547Q0 568 15 582T52 597Q74 597 89 583T104 547Q104 526 89 512T52
497Q30 497 15 511T0 547ZM0 647Q0 668 15 682T51 697Q71 697 86 683T101 647Q101 626 86 612T51 597Q30 597 15 611T0 647ZM101 650Q101 669 116 683T152 697Q172 697 187 683T202 650Q202 631 187 617T152 603Q131 603 116 617T101 650ZM202 650Q202 669 216
683T252 697Q273 697 287 683T302 650Q302 631 288 617T252 603Q231 603 217 617T202 650ZM299 549Q299 569 313 583T347 597Q367 597 381 583T395 549Q395 529 381 515T347 501Q327 501 313 515T299 549ZM303 448Q303 469 317 484T353 499Q373 499 387 484T402
448Q402 426 388 411T353 396Q332 396 318 411T303 448ZM0 247Q0 267 15 281T52 295Q73 295 88 281T103 247Q103 227 88 213T52 199Q30 199 15 213T0 247ZM0 149Q0 170 15 184T52 199Q73 199 88 185T103 149Q103 128 88 114T52 99Q30 99 15 113T0 149Z" />
<glyph unicode="C" glyph-name="C" horiz-adv-x="500" d="M299 549Q299 569 314 583T350 597Q370 597 385 583T400 549Q400 529 385 515T350 501Q329 501 314 515T299 549ZM200 647Q200 668 214 682T250 697Q270 697 284 683T299 647Q299 626 285 612T250 597Q229
597 215 611T200 647ZM100 650Q100 669 114 683T150 697Q171 697 185 683T200 650Q200 630 186 616T150 602Q129 602 115 616T100 650ZM0 551Q0 572 14 587T50 602Q71 602 85 587T100 551Q100 529 86 514T50 499Q29 499 15 514T0 551ZM0 450Q0 470 15 484T52 499Q74
499 89 485T104 450Q104 430 89 416T52 401Q30 401 15 415T0 450ZM0 350Q0 371 15 386T52 401Q74 401 89 386T104 350Q104 329 89 314T52 299Q30 299 15 314T0 350ZM0 250Q0 270 15 284T52 299Q74 299 89 285T104 250Q104 229 89 215T52 200Q30 200 15 214T0 250ZM0
151Q0 171 15 185T52 200Q74 200 89 186T104 151Q104 130 89 116T52 101Q30 101 15 115T0 151ZM96 49Q96 69 111 83T149 97Q170 97 185 83T201 49Q201 28 186 14T149 0Q127 0 112 14T96 49ZM201 49Q201 69 216 83T253 97Q274 97 289 83T304 49Q304 28 289 14T253
0Q231 0 216 14T201 49ZM300 148Q300 169 315 184T352 200Q373 200 388 185T403 148Q403 126 388 111T352 95Q330 95 315 110T300 148Z" />
<glyph unicode="D" glyph-name="D" horiz-adv-x="500" d="M0 649Q0 669 15 683T51 697Q72 697 87 683T102 649Q102 628 87 614T51 600Q30 600 15 614T0 649ZM102 649Q102 669 116 683T152 697Q172 697 186 683T201 649Q201 628 187 614T152 600Q131 600 117 614T102
649ZM201 648Q201 668 216 682T253 697Q274 697 289 683T304 648Q304 628 289 614T253 599Q231 599 216 613T201 648ZM304 550Q304 570 318 584T354 599Q374 599 388 585T403 550Q403 529 389 515T354 500Q333 500 319 514T304 550ZM300 450Q300 471 315 485T352
500Q373 500 388 486T403 450Q403 429 388 415T352 400Q330 400 315 414T300 450ZM300 351Q300 371 315 385T351 400Q371 400 386 386T401 351Q401 330 386 316T351 301Q330 301 315 315T300 351ZM298 251Q298 272 313 286T350 301Q371 301 386 287T401 251Q401
230 386 216T350 201Q328 201 313 215T298 251ZM298 150Q298 171 313 186T350 201Q371 201 386 186T401 150Q401 129 386 114T350 99Q328 99 313 114T298 150ZM0 49Q0 69 15 83T51 97Q72 97 87 83T102 49Q102 28 87 14T51 0Q30 0 15 14T0 49ZM102 49Q102 69 116
83T151 97Q171 97 185 83T200 49Q200 28 186 14T151 0Q131 0 117 14T102 49ZM200 49Q200 69 215 83T251 97Q271 97 286 83T301 49Q301 28 286 14T251 0Q230 0 215 14T200 49ZM0 151Q0 171 15 185T51 199Q72 199 87 185T102 151Q102 130 87 116T51 102Q30 102 15
116T0 151ZM0 249Q0 269 15 283T51 298Q72 298 87 284T102 249Q102 228 87 214T51 199Q30 199 15 213T0 249ZM0 348Q0 369 15 383T52 398Q73 398 88 384T103 348Q103 327 88 313T52 298Q30 298 15 312T0 348ZM0 448Q0 468 15 482T52 497Q73 497 88 483T103 448Q103
427 88 413T52 398Q30 398 15 412T0 448ZM0 547Q0 567 15 581T51 596Q71 596 86 582T101 547Q101 526 86 512T51 497Q30 497 15 511T0 547Z" />
<glyph unicode="E" glyph-name="E" horiz-adv-x="500" d="M0 648Q0 668 15 682T51 697Q71 697 86 683T101 648Q101 628 86 614T51 599Q30 599 15 613T0 648ZM101 648Q101 668 116 682T152 697Q172 697 187 683T202 648Q202 628 187 614T152 599Q131 599 116 613T101
648ZM202 648Q202 668 216 682T252 697Q272 697 286 683T301 648Q301 628 287 614T252 599Q231 599 217 613T202 648ZM301 648Q301 668 316 682T352 697Q373 697 388 683T403 648Q403 628 388 614T352 599Q331 599 316 613T301 648ZM0 550Q0 570 15 584T51 599Q72
599 87 585T102 550Q102 530 87 516T51 501Q30 501 15 515T0 550ZM0 452Q0 472 15 486T51 501Q72 501 87 487T102 452Q102 431 87 417T51 402Q30 402 15 416T0 452ZM0 353Q0 373 14 387T50 402Q71 402 85 388T100 353Q100 332 86 318T50 303Q29 303 15 317T0 353ZM0
252Q0 273 14 288T50 303Q71 303 85 288T100 252Q100 230 86 215T50 200Q29 200 15 215T0 252ZM0 151Q0 171 14 185T50 200Q71 200 85 186T100 151Q100 130 86 116T50 101Q29 101 15 115T0 151ZM0 51Q0 71 14 86T50 101Q71 101 85 86T100 51Q100 30 86 15T50 0Q29
0 15 15T0 51ZM100 49Q100 69 115 83T152 98Q173 98 188 84T203 49Q203 29 188 15T152 0Q130 0 115 14T100 49ZM203 49Q203 69 217 83T252 98Q272 98 286 84T300 49Q300 29 286 15T252 0Q231 0 217 14T203 49ZM300 50Q300 70 315 84T352 99Q373 99 388 85T403 50Q403
29 388 15T352 0Q330 0 315 14T300 50ZM99 350Q99 372 114 387T151 402Q173 402 188 387T203 350Q203 328 188 313T151 298Q129 298 114 313T99 350ZM203 349Q203 369 217 384T253 399Q273 399 287 384T302 349Q302 328 288 313T253 298Q232 298 218 313T203 349Z"
/>
<glyph unicode="F" glyph-name="F" horiz-adv-x="500" d="M0 648Q0 668 15 682T51 697Q72 697 87 683T102 648Q102 628 87 614T51 599Q30 599 15 613T0 648ZM102 648Q102 668 116 682T152 697Q173 697 187 683T202 648Q202 628 188 614T152 599Q131 599 117 613T102
648ZM202 648Q202 668 216 682T251 697Q271 697 285 683T300 648Q300 627 286 613T251 598Q231 598 217 612T202 648ZM300 648Q300 668 315 682T351 697Q371 697 386 683T401 648Q401 627 386 613T351 598Q330 598 315 612T300 648ZM0 550Q0 570 15 584T51 598Q71
598 86 584T101 550Q101 530 86 516T51 502Q30 502 15 516T0 550ZM0 452Q0 472 15 487T51 502Q71 502 86 487T101 452Q101 431 86 416T51 401Q30 401 15 416T0 452ZM0 352Q0 372 15 386T51 401Q71 401 86 387T101 352Q101 331 86 317T51 302Q30 302 15 316T0 352ZM101
350Q101 369 115 383T151 397Q172 397 186 383T201 350Q201 330 187 316T151 302Q130 302 116 316T101 350ZM201 349Q201 369 216 383T253 397Q274 397 289 383T304 349Q304 328 289 314T253 300Q231 300 216 314T201 349ZM0 248Q0 268 15 282T51 297Q71 297 86
283T101 248Q101 228 86 214T51 199Q30 199 15 213T0 248ZM0 149Q0 170 15 184T51 199Q71 199 86 185T101 149Q101 128 86 114T51 99Q30 99 15 113T0 149ZM0 50Q0 70 15 84T52 99Q73 99 88 85T103 50Q103 29 88 15T52 0Q30 0 15 14T0 50Z" />
<glyph unicode="G" glyph-name="G" horiz-adv-x="500" d="M0 550Q0 570 15 584T52 599Q74 599 89 585T104 550Q104 530 89 516T52 501Q30 501 15 515T0 550ZM0 450Q0 471 15 486T52 501Q74 501 89 486T104 450Q104 429 89 414T52 399Q30 399 15 414T0 450ZM0 350Q0
370 15 384T51 399Q72 399 87 385T102 350Q102 329 87 315T51 300Q30 300 15 314T0 350ZM0 249Q0 270 15 285T51 300Q72 300 87 285T102 249Q102 228 87 213T51 198Q30 198 15 213T0 249ZM0 148Q0 169 14 183T50 198Q71 198 85 184T100 148Q100 127 86 113T50 98Q29
98 15 112T0 148ZM100 49Q100 69 115 83T152 98Q173 98 188 84T203 49Q203 29 188 15T152 0Q130 0 115 14T100 49ZM203 49Q203 69 217 83T252 98Q272 98 286 84T300 49Q300 29 286 15T252 0Q231 0 217 14T203 49ZM300 49Q300 69 315 83T351 98Q371 98 386 84T401
49Q401 29 386 15T351 0Q330 0 315 14T300 49ZM298 148Q298 168 313 182T349 197Q369 197 384 183T399 148Q399 128 384 114T349 99Q328 99 313 113T298 148ZM298 247Q298 268 313 282T350 297Q371 297 386 283T401 247Q401 226 386 212T350 197Q328 197 313 211T298
247ZM298 347Q298 368 313 382T350 397Q371 397 386 383T401 347Q401 326 386 312T350 297Q328 297 313 311T298 347ZM198 348Q198 368 212 382T248 397Q269 397 283 383T298 348Q298 328 284 314T248 299Q227 299 213 313T198 348ZM96 648Q96 668 111 682T148
697Q169 697 184 683T199 648Q199 627 184 613T148 598Q126 598 111 612T96 648ZM202 649Q202 669 216 683T252 697Q272 697 286 683T301 649Q301 629 287 615T252 601Q231 601 217 615T202 649ZM298 552Q298 573 313 588T350 603Q372 603 387 588T402 552Q402
530 387 515T350 500Q328 500 313 515T298 552Z" />
<glyph unicode="H" glyph-name="H" horiz-adv-x="500" d="M0 649Q0 669 15 683T52 697Q73 697 88 683T103 649Q103 628 88 614T52 600Q30 600 15 614T0 649ZM0 551Q0 571 15 585T52 600Q73 600 88 586T103 551Q103 530 88 516T52 501Q30 501 15 515T0 551ZM0 450Q0
471 15 486T51 501Q71 501 86 486T101 450Q101 429 86 414T51 399Q30 399 15 414T0 450ZM0 349Q0 370 15 384T51 399Q71 399 86 385T101 349Q101 328 86 314T51 299Q30 299 15 313T0 349ZM0 250Q0 270 15 284T51 299Q71 299 86 285T101 250Q101 230 86 216T51 201Q30
201 15 215T0 250ZM0 151Q0 172 15 187T51 202Q71 202 86 187T101 151Q101 130 86 115T51 100Q30 100 15 115T0 151ZM0 50Q0 71 15 85T51 100Q72 100 87 86T102 50Q102 29 87 15T51 0Q30 0 15 14T0 50ZM104 349Q104 368 118 382T153 396Q173 396 187 382T201 349Q201
329 187 315T153 301Q132 301 118 315T104 349ZM201 349Q201 368 216 382T253 396Q274 396 289 382T304 349Q304 329 289 315T253 301Q231 301 216 315T201 349ZM304 348Q304 368 318 382T353 396Q373 396 387 382T401 348Q401 327 387 313T353 299Q332 299 318
313T304 348ZM300 250Q300 270 315 284T351 299Q371 299 386 285T401 250Q401 229 386 215T351 200Q330 200 315 214T300 250ZM300 151Q300 171 314 185T350 200Q371 200 385 186T400 151Q400 130 386 116T350 101Q329 101 315 115T300 151ZM301 51Q301 71 315
86T351 101Q371 101 385 86T400 51Q400 30 386 15T351 0Q330 0 316 15T301 51ZM299 649Q299 669 313 683T349 697Q369 697 383 683T398 649Q398 628 384 614T349 600Q328 600 314 614T299 649ZM300 550Q300 570 315 585T352 600Q373 600 388 585T403 550Q403 529
388 514T352 499Q330 499 315 514T300 550ZM302 449Q302 470 317 484T353 499Q373 499 388 485T403 449Q403 428 388 414T353 399Q332 399 317 413T302 449Z" />
<glyph unicode="I" glyph-name="I" horiz-adv-x="399" d="M0 649Q0 669 15 683T52 697Q73 697 88 683T103 649Q103 629 88 615T52 601Q30 601 15 615T0 649ZM103 649Q103 669 117 683T153 697Q174 697 188 683T203 649Q203 629 189 615T153 601Q132 601 118 615T103
649ZM203 649Q203 669 217 683T253 697Q274 697 288 683T303 649Q303 629 289 615T253 601Q232 601 218 615T203 649ZM99 548Q99 570 114 585T150 600Q170 600 185 585T200 548Q200 526 185 511T150 496Q129 496 114 511T99 548ZM99 448Q99 468 114 482T152 496Q173
496 188 482T204 448Q204 427 189 413T152 399Q130 399 115 413T99 448ZM99 350Q99 370 114 384T152 399Q173 399 188 385T204 350Q204 330 189 316T152 301Q130 301 115 315T99 350ZM99 251Q99 271 114 286T150 301Q171 301 186 286T201 251Q201 230 186 215T150
200Q129 200 114 215T99 251ZM98 150Q98 170 113 185T150 200Q171 200 186 185T201 150Q201 129 186 114T150 99Q128 99 113 114T98 150ZM0 49Q0 69 15 83T51 97Q72 97 87 83T102 49Q102 28 87 14T51 0Q30 0 15 14T0 49ZM102 49Q102 69 116 83T151 97Q171 97 185
83T200 49Q200 28 186 14T151 0Q131 0 117 14T102 49ZM200 48Q200 68 215 82T251 96Q271 96 286 82T301 48Q301 28 286 14T251 0Q230 0 215 14T200 48Z" />
<glyph unicode="J" glyph-name="J" horiz-adv-x="500" d="M-97 -50Q-97 -29 -83 -15T-49 0Q-28 0 -14 -14T0 -50Q0 -71 -14 -85T-49 -100Q-69 -100 -83 -86T-97 -50ZM0 -150Q0 -129 15 -115T51 -101Q72 -101 87 -115T102 -150Q102 -170 87 -184T51 -198Q30 -198
15 -184T0 -150ZM102 -150Q102 -129 116 -115T152 -101Q172 -101 186 -115T201 -150Q201 -170 187 -184T152 -198Q131 -198 117 -184T102 -150ZM203 -51Q203 -30 217 -15T253 0Q274 0 288 -15T303 -51Q303 -71 289 -86T253 -101Q232 -101 218 -86T203 -51ZM196
50Q196 70 211 84T250 99Q272 99 287 85T303 50Q303 29 288 15T250 0Q227 0 212 14T196 50ZM196 150Q196 170 212 185T250 200Q272 200 288 185T304 150Q304 129 288 114T250 99Q228 99 212 114T196 150ZM196 249Q196 269 212 283T250 297Q272 297 288 283T304
249Q304 228 288 214T250 200Q228 200 212 214T196 249ZM196 349Q196 370 212 385T251 400Q274 400 290 385T306 349Q306 327 290 312T251 297Q228 297 212 312T196 349ZM196 450Q196 470 212 484T251 499Q274 499 290 485T306 450Q306 429 290 415T251 400Q228
400 212 414T196 450ZM197 549Q197 570 213 584T252 599Q274 599 290 585T306 549Q306 528 290 514T252 499Q229 499 213 513T197 549ZM301 648Q301 669 315 683T351 697Q371 697 385 683T400 648Q400 628 386 614T351 599Q330 599 316 613T301 648ZM201 649Q201
669 215 683T250 697Q270 697 284 683T298 649Q298 629 284 615T250 601Q229 601 215 615T201 649ZM98 649Q98 669 113 683T150 697Q171 697 186 683T201 649Q201 629 186 615T150 601Q128 601 113 615T98 649Z" />
<glyph unicode="K" glyph-name="K" horiz-adv-x="500" d="M0 649Q0 669 15 683T51 697Q72 697 87 683T102 649Q102 629 87 615T51 601Q30 601 15 615T0 649ZM0 550Q0 571 15 586T51 601Q72 601 87 586T102 550Q102 529 87 514T51 499Q30 499 15 514T0 550ZM0 450Q0
470 15 484T51 499Q72 499 87 485T102 450Q102 430 87 416T51 401Q30 401 15 415T0 450ZM0 350Q0 371 15 386T51 401Q72 401 87 386T102 350Q102 328 87 313T51 298Q30 298 15 313T0 350ZM0 248Q0 269 15 283T51 298Q72 298 87 284T102 248Q102 227 87 213T51 198Q30
198 15 212T0 248ZM0 149Q0 169 15 183T51 198Q72 198 87 184T102 149Q102 129 87 115T51 100Q30 100 15 114T0 149ZM0 50Q0 71 15 85T52 100Q73 100 88 86T103 50Q103 29 88 15T52 0Q30 0 15 14T0 50ZM103 350Q103 372 117 387T153 402Q173 402 187 387T202 350Q202
328 188 313T153 298Q132 298 118 313T103 350ZM202 248Q202 268 217 283T253 298Q273 298 288 283T303 248Q303 227 288 212T253 197Q232 197 217 212T202 248ZM303 149Q303 169 318 183T354 197Q374 197 389 183T404 149Q404 128 389 114T354 100Q333 100 318
114T303 149ZM299 50Q299 71 314 85T352 100Q373 100 388 86T404 50Q404 29 389 15T352 0Q330 0 315 14T299 50ZM197 450Q197 470 212 484T249 499Q270 499 285 485T300 450Q300 429 285 415T249 400Q227 400 212 414T197 450ZM300 550Q300 570 315 585T351 600Q372
600 387 585T402 550Q402 529 387 514T351 499Q330 499 315 514T300 550ZM300 649Q300 669 315 683T351 697Q372 697 387 683T402 649Q402 628 387 614T351 600Q330 600 315 614T300 649Z" />
<glyph unicode="L" glyph-name="L" horiz-adv-x="500" d="M0 648Q0 668 15 682T52 697Q73 697 88 683T103 648Q103 627 88 613T52 598Q30 598 15 612T0 648ZM0 548Q0 568 15 583T52 598Q73 598 88 583T103 548Q103 527 88 512T52 497Q30 497 15 512T0 548ZM0 449Q0
469 15 483T52 497Q74 497 89 483T104 449Q104 429 89 415T52 401Q30 401 15 415T0 449ZM0 351Q0 371 15 386T52 401Q74 401 89 386T104 351Q104 330 89 315T52 300Q30 300 15 315T0 351ZM0 250Q0 271 15 285T52 300Q73 300 88 286T103 250Q103 229 88 215T52 200Q30
200 15 214T0 250ZM0 150Q0 170 15 185T52 200Q73 200 88 185T103 150Q103 129 88 114T52 99Q30 99 15 114T0 150ZM0 50Q0 70 15 84T51 99Q71 99 86 85T101 50Q101 29 86 15T51 0Q30 0 15 14T0 50ZM101 49Q101 69 116 83T152 97Q172 97 187 83T202 49Q202 28 187
14T152 0Q131 0 116 14T101 49ZM202 49Q202 69 216 83T252 97Q272 97 286 83T301 49Q301 28 287 14T252 0Q231 0 217 14T202 49ZM301 49Q301 69 316 83T352 98Q373 98 388 84T403 49Q403 29 388 15T352 0Q331 0 316 14T301 49Z" />
<glyph unicode="M" glyph-name="M" horiz-adv-x="600" d="M0 649Q0 669 15 683T52 697Q73 697 88 683T103 649Q103 628 88 614T52 600Q30 600 15 614T0 649ZM0 550Q0 570 15 585T52 600Q73 600 88 585T103 550Q103 529 88 514T52 499Q30 499 15 514T0 550ZM0 449Q0
470 15 484T51 499Q72 499 87 485T102 449Q102 428 87 414T51 399Q30 399 15 413T0 449ZM0 349Q0 370 15 384T51 399Q72 399 87 385T102 349Q102 328 87 314T51 299Q30 299 15 313T0 349ZM0 249Q0 269 15 284T51 299Q72 299 87 284T102 249Q102 228 87 213T51 198Q30
198 15 213T0 249ZM0 148Q0 169 15 183T51 198Q72 198 87 184T102 148Q102 127 87 113T51 98Q30 98 15 112T0 148ZM0 49Q0 69 15 83T51 98Q71 98 86 84T101 49Q101 29 86 15T51 0Q30 0 15 14T0 49ZM101 549Q101 569 115 584T151 599Q172 599 186 584T201 549Q201
528 187 513T151 498Q130 498 116 513T101 549ZM201 448Q201 469 216 483T252 498Q272 498 287 484T302 448Q302 427 287 413T252 398Q231 398 216 412T201 448ZM302 547Q302 568 316 582T352 597Q372 597 386 583T401 547Q401 526 387 512T352 497Q331 497 317
511T302 547ZM401 647Q401 668 416 682T453 697Q474 697 489 683T504 647Q504 626 489 612T453 597Q431 597 416 611T401 647ZM402 545Q402 564 417 577T453 591Q474 591 489 578T504 545Q504 526 489 513T453 499Q432 499 417 512T402 545ZM398 449Q398 470 413
484T451 499Q473 499 488 485T504 449Q504 428 489 414T451 399Q429 399 414 413T398 449ZM398 349Q398 370 413 384T449 399Q470 399 485 385T500 349Q500 328 485 314T449 299Q428 299 413 313T398 349ZM399 250Q399 270 414 284T450 299Q470 299 485 285T500
250Q500 229 485 215T450 200Q429 200 414 214T399 250ZM399 149Q399 170 414 185T451 200Q472 200 487 185T502 149Q502 127 487 112T451 97Q429 97 414 112T399 149ZM401 49Q401 69 416 83T452 97Q472 97 487 83T502 49Q502 28 487 14T452 0Q431 0 416 14T401
49Z" />
<glyph unicode="N" glyph-name="N" horiz-adv-x="600" d="M0 649Q0 669 15 683T52 697Q74 697 89 683T104 649Q104 628 89 614T52 600Q30 600 15 614T0 649ZM0 550Q0 570 15 585T52 600Q74 600 89 585T104 550Q104 529 89 514T52 499Q30 499 15 514T0 550ZM0 450Q0
470 15 484T52 499Q73 499 88 485T103 450Q103 429 88 415T52 400Q30 400 15 414T0 450ZM0 349Q0 370 15 385T52 400Q73 400 88 385T103 349Q103 328 88 313T52 298Q30 298 15 313T0 349ZM0 249Q0 270 15 284T51 299Q72 299 87 285T102 249Q102 228 87 214T51 199Q30
199 15 213T0 249ZM0 149Q0 170 15 184T51 199Q72 199 87 185T102 149Q102 128 87 114T51 99Q30 99 15 113T0 149ZM0 50Q0 70 15 84T51 99Q71 99 86 85T101 50Q101 29 86 15T51 0Q30 0 15 14T0 50ZM107 548Q107 567 121 581T154 595Q173 595 187 581T201 548Q201
528 187 514T154 500Q135 500 121 514T107 548ZM104 449Q104 470 118 485T153 500Q173 500 187 485T201 449Q201 428 187 413T153 398Q132 398 118 413T104 449ZM200 351Q200 372 215 387T251 402Q271 402 286 387T301 351Q301 330 286 315T251 300Q230 300 215
315T200 351ZM300 250Q300 271 314 285T350 300Q371 300 385 286T400 250Q400 229 386 215T350 200Q329 200 315 214T300 250ZM301 150Q301 171 315 185T351 200Q371 200 385 186T400 150Q400 129 386 115T351 100Q330 100 316 114T301 150ZM401 49Q401 69 416
83T452 98Q473 98 488 84T503 49Q503 29 488 15T452 0Q431 0 416 14T401 49ZM401 149Q401 169 416 184T452 199Q473 199 488 184T503 149Q503 128 488 113T452 98Q431 98 416 113T401 149ZM401 249Q401 270 416 284T453 299Q474 299 489 285T504 249Q504 228 489
214T453 199Q431 199 416 213T401 249ZM400 350Q400 371 415 386T452 401Q474 401 489 386T504 350Q504 329 489 314T452 299Q430 299 415 314T400 350ZM400 450Q400 470 415 484T452 499Q473 499 488 485T503 450Q503 430 488 416T452 401Q430 401 415 415T400
450ZM401 549Q401 570 416 584T452 599Q473 599 488 585T503 549Q503 528 488 514T452 499Q431 499 416 513T401 549ZM401 648Q401 668 416 682T453 697Q474 697 489 683T504 648Q504 628 489 614T453 599Q431 599 416 613T401 648Z" />
<glyph unicode="O" glyph-name="O" horiz-adv-x="500" d="M0 548Q0 567 15 581T51 595Q71 595 86 581T101 548Q101 528 86 514T51 500Q30 500 15 514T0 548ZM0 450Q0 470 15 485T51 500Q71 500 86 485T101 450Q101 429 86 414T51 399Q30 399 15 414T0 450ZM0 349Q0
370 15 384T51 399Q72 399 87 385T102 349Q102 328 87 314T51 299Q30 299 15 313T0 349ZM0 249Q0 270 15 284T51 299Q72 299 87 285T102 249Q102 228 87 214T51 199Q30 199 15 213T0 249ZM0 149Q0 169 15 184T51 199Q71 199 86 184T101 149Q101 128 86 113T51 98Q30
98 15 113T0 149ZM101 49Q101 69 116 83T152 98Q172 98 187 84T202 49Q202 29 187 15T152 0Q131 0 116 14T101 49ZM202 49Q202 69 216 83T252 97Q272 97 286 83T301 49Q301 28 287 14T252 0Q231 0 217 14T202 49ZM301 147Q301 168 316 182T352 197Q372 197 387
183T402 147Q402 126 387 112T352 97Q331 97 316 111T301 147ZM297 248Q297 269 312 284T350 299Q371 299 386 284T402 248Q402 227 387 212T350 197Q328 197 313 212T297 248ZM297 348Q297 368 312 382T350 397Q372 397 387 383T403 348Q403 328 388 314T350 299Q328
299 313 313T297 348ZM299 448Q299 468 314 483T351 498Q373 498 388 483T403 448Q403 427 388 412T351 397Q329 397 314 412T299 448ZM299 547Q299 567 314 581T351 596Q373 596 388 582T403 547Q403 527 388 513T351 498Q329 498 314 512T299 547ZM200 648Q200
668 215 682T251 697Q271 697 286 683T301 648Q301 627 286 613T251 598Q230 598 215 612T200 648ZM98 648Q98 668 113 682T149 697Q170 697 185 683T200 648Q200 627 185 613T149 598Q128 598 113 612T98 648Z" />
<glyph unicode="P" glyph-name="P" horiz-adv-x="500" d="M0 49Q0 69 15 83T52 97Q74 97 89 83T104 49Q104 28 89 14T52 0Q30 0 15 14T0 49ZM0 147Q0 167 15 181T52 196Q74 196 89 182T104 147Q104 126 89 112T52 97Q30 97 15 111T0 147ZM0 247Q0 268 15 283T52
298Q73 298 88 283T103 247Q103 226 88 211T52 196Q30 196 15 211T0 247ZM0 348Q0 369 15 383T52 398Q73 398 88 384T103 348Q103 327 88 313T52 298Q30 298 15 312T0 348ZM0 447Q0 467 15 481T52 496Q74 496 89 482T104 447Q104 427 89 413T52 398Q30 398 15 412T0
447ZM0 548Q0 569 15 584T52 599Q74 599 89 584T104 548Q104 526 89 511T52 496Q30 496 15 511T0 548ZM0 648Q0 668 15 682T51 697Q71 697 86 683T101 648Q101 628 86 614T51 599Q30 599 15 613T0 648ZM101 649Q101 669 115 683T151 697Q172 697 186 683T201 649Q201
628 187 614T151 600Q130 600 116 614T101 649ZM201 649Q201 669 215 683T251 697Q272 697 286 683T301 649Q301 628 287 614T251 600Q230 600 216 614T201 649ZM300 551Q300 572 314 587T350 603Q371 603 385 588T400 551Q400 529 386 514T350 498Q329 498 315
513T300 551ZM299 448Q299 469 314 483T350 498Q370 498 385 484T400 448Q400 427 385 413T350 398Q329 398 314 412T299 448ZM202 349Q202 369 216 383T251 398Q271 398 285 384T299 349Q299 328 285 314T251 299Q230 299 216 313T202 349ZM102 347Q102 367 116
381T152 395Q173 395 187 381T202 347Q202 327 188 313T152 299Q131 299 117 313T102 347Z" />
<glyph unicode="Q" glyph-name="Q" horiz-adv-x="500" d="M0 547Q0 567 15 581T52 595Q74 595 89 581T104 547Q104 527 89 513T52 499Q30 499 15 513T0 547ZM0 449Q0 469 15 484T52 499Q74 499 89 484T104 449Q104 428 89 413T52 398Q30 398 15 413T0 449ZM0 349Q0
369 15 383T52 398Q73 398 88 384T103 349Q103 328 88 314T52 299Q30 299 15 313T0 349ZM0 248Q0 269 15 284T52 299Q73 299 88 284T103 248Q103 227 88 212T52 197Q30 197 15 212T0 248ZM0 148Q0 168 15 182T51 197Q72 197 87 183T102 148Q102 127 87 113T51 98Q30
98 15 112T0 148ZM102 49Q102 69 116 83T152 98Q172 98 186 84T201 49Q201 29 187 15T152 0Q131 0 117 14T102 49ZM201 49Q201 69 216 83T253 98Q274 98 289 84T304 49Q304 29 289 15T253 0Q231 0 216 14T201 49ZM304 147Q304 167 318 181T354 195Q374 195 388
181T403 147Q403 126 389 112T354 98Q333 98 319 112T304 147ZM298 246Q298 267 313 282T351 297Q372 297 387 282T403 246Q403 225 388 210T351 195Q329 195 314 210T298 246ZM298 347Q298 367 313 381T351 396Q373 396 388 382T404 347Q404 326 389 312T351 297Q329
297 314 311T298 347ZM297 446Q297 467 312 481T351 496Q373 496 388 482T404 446Q404 425 389 411T351 396Q328 396 313 410T297 446ZM297 547Q297 568 312 583T350 598Q371 598 386 583T402 547Q402 526 387 511T350 496Q328 496 313 511T297 547ZM202 648Q202
668 216 682T249 697Q268 697 282 683T296 648Q296 627 282 613T249 598Q230 598 216 612T202 648ZM99 649Q99 669 114 683T151 697Q172 697 187 683T202 649Q202 629 187 615T151 601Q129 601 114 615T99 649ZM299 -50Q299 -29 314 -15T351 0Q372 0 387 -14T402
-50Q402 -71 387 -85T351 -100Q329 -100 314 -86T299 -50Z" />
<glyph unicode="R" glyph-name="R" horiz-adv-x="500" d="M0 648Q0 668 15 682T52 697Q73 697 88 683T103 648Q103 628 88 614T52 599Q30 599 15 613T0 648ZM103 648Q103 668 117 682T152 697Q172 697 186 683T201 648Q201 628 187 614T152 599Q132 599 118 613T103
648ZM201 649Q201 669 216 683T252 697Q272 697 287 683T302 649Q302 628 287 614T252 600Q231 600 216 614T201 649ZM302 550Q302 570 317 585T353 600Q373 600 388 585T403 550Q403 529 388 514T353 499Q332 499 317 514T302 550ZM299 449Q299 470 314 484T351
499Q373 499 388 485T403 449Q403 428 388 414T351 399Q329 399 314 413T299 449ZM200 349Q200 369 214 384T250 399Q270 399 284 384T299 349Q299 328 285 313T250 298Q229 298 215 313T200 349ZM101 348Q101 369 115 383T151 398Q171 398 185 384T200 348Q200
327 186 313T151 298Q130 298 116 312T101 348ZM0 49Q0 69 15 83T52 98Q74 98 89 84T104 49Q104 29 89 15T52 0Q30 0 15 14T0 49ZM0 148Q0 168 15 182T52 197Q74 197 89 183T104 148Q104 127 89 113T52 98Q30 98 15 112T0 148ZM0 247Q0 268 15 282T53 297Q75 297
90 283T106 247Q106 226 91 212T53 197Q31 197 16 211T0 247ZM0 347Q0 367 15 381T53 396Q75 396 90 382T106 347Q106 326 91 312T53 297Q31 297 16 311T0 347ZM0 447Q0 468 15 483T52 498Q74 498 89 483T104 447Q104 426 89 411T52 396Q30 396 15 411T0 447ZM0
547Q0 567 15 581T52 596Q74 596 89 582T104 547Q104 527 89 513T52 498Q30 498 15 512T0 547ZM302 250Q302 270 316 285T352 300Q372 300 386 285T401 250Q401 229 387 214T352 199Q331 199 317 214T302 250ZM300 150Q300 170 315 184T351 199Q371 199 386 185T401
150Q401 129 386 115T351 100Q330 100 315 114T300 150ZM300 50Q300 71 315 85T351 100Q371 100 386 86T401 50Q401 29 386 15T351 0Q330 0 315 14T300 50Z" />
<glyph unicode="S" glyph-name="S" horiz-adv-x="500" d="M0 48Q0 68 15 82T51 96Q71 96 86 82T101 48Q101 28 86 14T51 0Q30 0 15 14T0 48ZM101 48Q101 68 115 82T150 96Q170 96 184 82T199 48Q199 28 185 14T150 0Q130 0 116 14T101 48ZM199 49Q199 69 214 83T251
97Q272 97 287 83T302 49Q302 28 287 14T251 0Q229 0 214 14T199 49ZM302 148Q302 169 316 184T352 199Q372 199 386 184T401 148Q401 127 387 112T352 97Q331 97 317 112T302 148ZM299 249Q299 269 314 283T350 298Q371 298 386 284T401 249Q401 228 386 214T350
199Q329 199 314 213T299 249ZM201 348Q201 369 215 383T250 398Q270 398 284 384T299 348Q299 327 285 313T250 298Q230 298 216 312T201 348ZM100 349Q100 369 115 383T151 398Q171 398 186 384T201 349Q201 328 186 314T151 299Q130 299 115 313T100 349ZM0
448Q0 469 15 484T51 499Q71 499 86 484T101 448Q101 427 86 412T51 397Q30 397 15 412T0 448ZM0 548Q0 568 15 582T51 596Q71 596 86 582T101 548Q101 527 86 513T51 499Q30 499 15 513T0 548ZM101 647Q101 667 116 682T152 697Q172 697 187 682T202 647Q202 626
187 611T152 596Q131 596 116 611T101 647ZM202 648Q202 668 216 682T251 697Q271 697 285 683T300 648Q300 628 286 614T251 599Q231 599 217 613T202 648ZM300 648Q300 668 315 682T353 697Q374 697 389 683T405 648Q405 628 390 614T353 599Q331 599 316 613T300
648Z" />
<glyph unicode="T" glyph-name="T" horiz-adv-x="600" d="M0 649Q0 669 15 683T51 697Q72 697 87 683T102 649Q102 629 87 615T51 601Q30 601 15 615T0 649ZM102 649Q102 669 116 683T152 697Q173 697 187 683T202 649Q202 629 188 615T152 601Q131 601 117 615T102
649ZM202 649Q202 669 216 683T251 697Q271 697 285 683T300 649Q300 628 286 614T251 600Q231 600 217 614T202 649ZM300 649Q300 669 315 683T351 697Q371 697 386 683T401 649Q401 628 386 614T351 600Q330 600 315 614T300 649ZM401 648Q401 668 416 682T452
697Q472 697 487 683T502 648Q502 628 487 614T452 599Q431 599 416 613T401 648ZM201 49Q201 69 215 83T251 98Q272 98 286 84T301 49Q301 29 287 15T251 0Q230 0 216 14T201 49ZM200 148Q200 168 215 182T251 197Q271 197 286 183T301 148Q301 127 286 113T251
98Q230 98 215 112T200 148ZM200 248Q200 268 215 283T251 298Q272 298 287 283T302 248Q302 227 287 212T251 197Q230 197 215 212T200 248ZM199 348Q199 368 214 382T251 397Q272 397 287 383T302 348Q302 327 287 313T251 298Q229 298 214 312T199 348ZM199
448Q199 468 214 483T251 498Q273 498 288 483T303 448Q303 427 288 412T251 397Q229 397 214 412T199 448ZM198 547Q198 567 213 581T251 596Q272 596 287 582T303 547Q303 527 288 513T251 498Q229 498 214 512T198 547Z" />
<glyph unicode="U" glyph-name="U" horiz-adv-x="500" d="M0 649Q0 669 15 683T52 697Q73 697 88 683T103 649Q103 628 88 614T52 600Q30 600 15 614T0 649ZM0 549Q0 570 15 585T52 600Q73 600 88 585T103 549Q103 528 88 513T52 498Q30 498 15 513T0 549ZM0 449Q0
469 15 483T52 498Q73 498 88 484T103 449Q103 429 88 415T52 400Q30 400 15 414T0 449ZM0 350Q0 370 15 385T52 400Q73 400 88 385T103 350Q103 329 88 314T52 299Q30 299 15 314T0 350ZM0 250Q0 270 15 284T52 299Q73 299 88 285T103 250Q103 229 88 215T52 200Q30
200 15 214T0 250ZM0 149Q0 170 15 185T52 200Q73 200 88 185T103 149Q103 128 88 113T52 98Q30 98 15 113T0 149ZM97 48Q97 67 112 81T149 95Q171 95 186 81T201 48Q201 28 186 14T149 0Q127 0 112 14T97 48ZM201 48Q201 68 216 82T253 96Q274 96 289 82T304 48Q304
28 289 14T253 0Q231 0 216 14T201 48ZM304 147Q304 167 318 182T354 197Q374 197 388 182T403 147Q403 126 389 111T354 96Q333 96 319 111T304 147ZM299 247Q299 268 314 282T351 297Q373 297 388 283T403 247Q403 226 388 212T351 197Q329 197 314 211T299 247ZM299
348Q299 369 314 384T351 399Q373 399 388 384T403 348Q403 327 388 312T351 297Q329 297 314 312T299 348ZM297 448Q297 468 312 482T350 496Q372 496 387 482T403 448Q403 427 388 413T350 399Q328 399 313 413T297 448ZM297 547Q297 567 312 582T350 597Q372
597 387 582T403 547Q403 526 388 511T350 496Q328 496 313 511T297 547ZM298 647Q298 668 313 682T351 697Q372 697 387 683T403 647Q403 626 388 612T351 597Q329 597 314 611T298 647Z" />
<glyph unicode="V" glyph-name="V" horiz-adv-x="600" d="M0 649Q0 669 15 683T51 697Q72 697 87 683T102 649Q102 628 87 614T51 600Q30 600 15 614T0 649ZM0 550Q0 571 15 585T51 600Q72 600 87 586T102 550Q102 529 87 515T51 500Q30 500 15 514T0 550ZM0 449Q0
470 15 485T52 500Q73 500 88 485T103 449Q103 428 88 413T52 398Q30 398 15 413T0 449ZM0 350Q0 370 15 384T52 398Q73 398 88 384T103 350Q103 329 88 315T52 301Q30 301 15 315T0 350ZM102 250Q102 270 116 284T152 299Q173 299 187 285T202 250Q202 229 188
215T152 200Q131 200 117 214T102 250ZM99 150Q99 170 114 185T151 200Q172 200 187 185T202 150Q202 129 187 114T151 99Q129 99 114 114T99 150ZM199 50Q199 71 214 85T251 100Q273 100 288 86T303 50Q303 29 288 15T251 0Q229 0 214 14T199 50ZM302 147Q302
167 316 182T352 197Q372 197 386 182T401 147Q401 126 387 111T352 96Q331 96 317 111T302 147ZM297 247Q297 268 312 282T349 297Q371 297 386 283T401 247Q401 226 386 212T349 197Q327 197 312 211T297 247ZM400 347Q400 368 415 383T452 398Q473 398 488 383T503
347Q503 325 488 310T452 295Q430 295 415 310T400 347ZM399 448Q399 468 414 482T451 497Q473 497 488 483T503 448Q503 427 488 413T451 398Q429 398 414 412T399 448ZM399 547Q399 568 414 582T451 597Q472 597 487 583T502 547Q502 526 487 512T451 497Q429
497 414 511T399 547ZM399 647Q399 668 414 682T451 697Q472 697 487 683T502 647Q502 626 487 612T451 597Q429 597 414 611T399 647Z" />
<glyph unicode="W" glyph-name="W" horiz-adv-x="600" d="M0 649Q0 669 15 683T53 697Q74 697 89 683T105 649Q105 629 90 615T53 601Q31 601 16 615T0 649ZM0 551Q0 571 15 586T53 601Q74 601 89 586T105 551Q105 530 90 515T53 500Q31 500 16 515T0 551ZM0 449Q0
470 15 485T52 500Q74 500 89 485T104 449Q104 428 89 413T52 398Q30 398 15 413T0 449ZM0 348Q0 369 15 383T52 398Q74 398 89 384T104 348Q104 327 89 313T52 298Q30 298 15 312T0 348ZM0 251Q0 270 15 284T52 298Q73 298 88 284T103 251Q103 231 88 217T52 203Q30
203 15 217T0 251ZM0 152Q0 173 15 188T52 203Q73 203 88 188T103 152Q103 130 88 115T52 100Q30 100 15 115T0 152ZM0 50Q0 71 15 85T52 100Q73 100 88 86T103 50Q103 29 88 15T52 0Q30 0 15 14T0 50ZM104 152Q104 174 118 189T153 204Q173 204 187 189T201 152Q201
130 187 115T153 100Q132 100 118 115T104 152ZM197 250Q197 270 212 284T249 298Q270 298 285 284T300 250Q300 230 285 216T249 202Q227 202 212 216T197 250ZM300 151Q300 172 315 187T351 202Q371 202 386 187T401 151Q401 130 386 115T351 100Q330 100 315
115T300 151ZM401 50Q401 71 416 85T452 100Q472 100 487 86T502 50Q502 29 487 15T452 0Q431 0 416 14T401 50ZM401 148Q401 168 416 182T452 196Q472 196 487 182T502 148Q502 127 487 113T452 99Q431 99 416 113T401 148ZM399 248Q399 268 414 282T450 296Q471
296 486 282T501 248Q501 228 486 214T450 200Q429 200 414 214T399 248ZM399 348Q399 369 414 384T452 399Q473 399 488 384T504 348Q504 326 489 311T452 296Q430 296 415 311T399 348ZM398 449Q398 469 413 483T451 498Q473 498 488 484T504 449Q504 428 489
414T451 399Q429 399 414 413T398 449ZM398 548Q398 568 413 582T451 597Q472 597 487 583T503 548Q503 527 488 513T451 498Q429 498 414 512T398 548ZM399 647Q399 668 414 682T451 697Q473 697 488 683T503 647Q503 626 488 612T451 597Q429 597 414 611T399
647Z" />
<glyph unicode="X" glyph-name="X" horiz-adv-x="600" d="M0 649Q0 669 15 683T51 697Q72 697 87 683T102 649Q102 629 87 615T51 601Q30 601 15 615T0 649ZM0 551Q0 571 15 586T51 601Q72 601 87 586T102 551Q102 530 87 515T51 500Q30 500 15 515T0 551ZM0 49Q0
69 15 83T51 97Q72 97 87 83T102 49Q102 28 87 14T51 0Q30 0 15 14T0 49ZM0 147Q0 168 15 182T51 197Q72 197 87 183T102 147Q102 126 87 112T51 97Q30 97 15 111T0 147ZM99 246Q99 268 114 283T150 298Q171 298 186 283T201 246Q201 224 186 209T150 194Q129 194
114 209T99 246ZM201 348Q201 369 215 383T251 398Q272 398 286 384T301 348Q301 327 287 313T251 298Q230 298 216 312T201 348ZM301 448Q301 469 315 483T351 498Q372 498 386 484T401 448Q401 427 387 413T351 398Q330 398 316 412T301 448ZM401 548Q401 569
416 583T453 598Q474 598 489 584T504 548Q504 527 489 513T453 498Q431 498 416 512T401 548ZM401 648Q401 668 416 682T453 697Q474 697 489 683T504 648Q504 627 489 613T453 598Q431 598 416 612T401 648ZM98 447Q98 466 113 480T151 494Q172 494 187 480T203
447Q203 428 188 414T151 400Q129 400 114 414T98 447ZM300 250Q300 271 315 285T351 300Q372 300 387 286T402 250Q402 229 387 215T351 200Q330 200 315 214T300 250ZM402 151Q402 171 417 185T453 200Q474 200 489 186T504 151Q504 130 489 116T453 101Q432
101 417 115T402 151ZM398 51Q398 71 413 86T451 101Q473 101 488 86T504 51Q504 30 489 15T451 0Q429 0 414 15T398 51Z" />
<glyph unicode="Y" glyph-name="Y" horiz-adv-x="600" d="M0 649Q0 669 15 683T51 697Q72 697 87 683T102 649Q102 629 87 615T51 601Q30 601 15 615T0 649ZM0 551Q0 571 15 586T51 601Q72 601 87 586T102 551Q102 530 87 515T51 500Q30 500 15 515T0 551ZM0 49Q0
69 15 83T51 97Q72 97 87 83T102 49Q102 28 87 14T51 0Q30 0 15 14T0 49ZM0 147Q0 168 15 182T51 197Q72 197 87 183T102 147Q102 126 87 112T51 97Q30 97 15 111T0 147ZM99 246Q99 268 114 283T150 298Q171 298 186 283T201 246Q201 224 186 209T150 194Q129 194
114 209T99 246ZM201 348Q201 369 215 383T251 398Q272 398 286 384T301 348Q301 327 287 313T251 298Q230 298 216 312T201 348ZM301 448Q301 469 315 483T351 498Q372 498 386 484T401 448Q401 427 387 413T351 398Q330 398 316 412T301 448ZM401 548Q401 569
416 583T453 598Q474 598 489 584T504 548Q504 527 489 513T453 498Q431 498 416 512T401 548ZM401 648Q401 668 416 682T453 697Q474 697 489 683T504 648Q504 627 489 613T453 598Q431 598 416 612T401 648ZM98 447Q98 466 113 480T151 494Q172 494 187 480T203
447Q203 428 188 414T151 400Q129 400 114 414T98 447Z" />
<glyph unicode="Z" glyph-name="Z" horiz-adv-x="500" d="M0 648Q0 668 15 682T51 697Q71 697 86 683T101 648Q101 628 86 614T51 599Q30 599 15 613T0 648ZM101 648Q101 668 116 682T152 697Q173 697 188 683T203 648Q203 628 188 614T152 599Q131 599 116 613T101
648ZM203 649Q203 669 217 683T253 697Q273 697 287 683T302 649Q302 629 288 615T253 601Q232 601 218 615T203 649ZM302 649Q302 669 316 683T352 697Q373 697 387 683T402 649Q402 629 388 615T352 601Q331 601 317 615T302 649ZM300 549Q300 571 314 586T350
601Q370 601 384 586T399 549Q399 527 385 512T350 497Q329 497 315 512T300 549ZM300 448Q300 468 315 482T352 497Q374 497 389 483T404 448Q404 427 389 413T352 398Q330 398 315 412T300 448ZM199 348Q199 370 214 385T251 400Q272 400 287 385T302 348Q302
326 287 311T251 296Q229 296 214 311T199 348ZM97 246Q97 267 112 281T148 296Q169 296 184 282T199 246Q199 225 184 211T148 196Q127 196 112 210T97 246ZM0 147Q0 167 14 181T49 196Q69 196 83 182T97 147Q97 126 83 112T49 97Q28 97 14 111T0 147ZM0 49Q0
69 14 83T50 97Q71 97 85 83T100 49Q100 28 86 14T50 0Q29 0 15 14T0 49ZM100 49Q100 69 115 83T151 98Q172 98 187 84T202 49Q202 29 187 15T151 0Q130 0 115 14T100 49ZM202 49Q202 69 216 83T252 98Q272 98 286 84T301 49Q301 29 287 15T252 0Q231 0 217 14T202
49ZM301 49Q301 69 316 83T352 98Q373 98 388 84T403 49Q403 29 388 15T352 0Q331 0 316 14T301 49Z" />
<glyph unicode="[" glyph-name="bracketleft" horiz-adv-x="300" d="M100 649Q100 669 114 683T150 697Q171 697 185 683T200 649Q200 628 186 614T150 600Q129 600 115 614T100 649ZM0 649Q0 669 14 683T50 697Q71 697 85 683T100 649Q100 628 86 614T50 600Q29
600 15 614T0 649ZM0 549Q0 569 15 583T51 598Q72 598 87 584T102 549Q102 529 87 515T51 500Q30 500 15 514T0 549ZM0 449Q0 470 15 485T51 500Q72 500 87 485T102 449Q102 427 87 412T51 397Q30 397 15 412T0 449ZM0 350Q0 369 15 383T51 397Q72 397 87 383T102
350Q102 331 87 317T51 303Q30 303 15 317T0 350ZM0 250Q0 272 15 287T51 303Q72 303 87 288T102 250Q102 227 87 212T51 196Q30 196 15 211T0 250ZM0 149Q0 168 15 182T52 196Q73 196 88 182T103 149Q103 130 88 116T52 102Q30 102 15 116T0 149ZM103 51Q103 72
117 87T153 102Q174 102 188 87T203 51Q203 30 189 15T153 0Q132 0 118 15T103 51ZM0 49Q0 69 15 83T52 97Q73 97 88 83T103 49Q103 28 88 14T52 0Q30 0 15 14T0 49Z" />
<glyph unicode="\" glyph-name="backslash" horiz-adv-x="600" d="M506 56Q506 76 491 90T455 104Q433 104 418 90T403 56Q403 36 418 22T455 8Q476 8 491 22T506 56ZM506 155Q506 176 491 191T455 206Q433 206 418 191T403 155Q403 134 418 119T455 104Q476 104
491 119T506 155ZM408 255Q408 276 393 291T356 306Q335 306 320 291T304 255Q304 234 319 220T356 205Q378 205 393 219T408 255ZM304 356Q304 377 290 392T254 407Q233 407 218 392T203 356Q203 335 218 321T254 306Q275 306 289 320T304 356ZM203 456Q203 477
189 491T153 506Q132 506 118 492T103 456Q103 436 117 422T153 407Q174 407 188 421T203 456ZM103 556Q103 577 89 592T53 607Q32 607 18 592T3 556Q3 535 17 521T53 506Q74 506 88 520T103 556ZM107 656Q107 676 92 690T55 705Q34 705 19 691T3 656Q3 635 18
621T55 607Q77 607 92 621T107 656Z" />
<glyph unicode="]" glyph-name="bracketright" horiz-adv-x="300" d="M108 654Q108 674 94 688T58 702Q38 702 23 688T8 654Q8 634 23 620T58 605Q79 605 93 619T108 654ZM208 654Q208 674 194 688T158 702Q138 702 123 688T108 654Q108 634 123 620T158 605Q179
605 193 619T208 654ZM208 554Q208 575 194 589T157 603Q136 603 121 589T106 554Q106 534 121 520T157 505Q179 505 193 519T208 554ZM208 454Q208 475 194 490T157 505Q136 505 121 490T106 454Q106 433 121 418T157 402Q179 402 193 417T208 454ZM208 355Q208
375 194 388T157 402Q136 402 121 389T106 355Q106 336 121 322T157 308Q179 308 193 322T208 355ZM208 255Q208 277 194 292T157 308Q136 308 121 293T106 255Q106 233 121 217T157 201Q179 201 193 217T208 255ZM208 154Q208 174 193 187T157 201Q136 201 121
188T105 154Q105 135 120 121T157 107Q178 107 193 121T208 154ZM105 56Q105 78 91 92T55 107Q35 107 20 93T5 56Q5 35 20 20T55 5Q76 5 90 20T105 56ZM208 54Q208 74 193 88T157 102Q136 102 121 88T105 54Q105 34 120 20T157 5Q178 5 193 19T208 54Z" />
<glyph unicode="^" glyph-name="asciicircum" horiz-adv-x="399" d="M0 550Q0 569 15 583T52 597Q74 597 89 583T104 550Q104 530 89 516T52 502Q30 502 15 516T0 550ZM100 647Q100 667 115 682T153 697Q174 697 189 682T205 647Q205 626 190 611T153 596Q131
596 116 611T100 647ZM203 550Q203 571 217 586T253 601Q274 601 288 586T303 550Q303 529 289 514T253 499Q232 499 218 514T203 550Z" />
<glyph unicode="_" glyph-name="underscore" horiz-adv-x="500" d="M0 -52Q0 -30 15 -15T52 0Q73 0 88 -15T103 -52Q103 -74 88 -89T52 -104Q30 -104 15 -89T0 -52ZM103 -52Q103 -30 117 -15T153 0Q174 0 188 -15T203 -52Q203 -74 189 -89T153 -104Q132 -104 118
-89T103 -52ZM203 -52Q203 -30 217 -15T253 0Q274 0 288 -15T303 -52Q303 -74 289 -89T253 -104Q232 -104 218 -89T203 -52ZM303 -52Q303 -30 317 -15T353 0Q374 0 388 -15T403 -52Q403 -74 389 -89T353 -104Q332 -104 318 -89T303 -52Z" />
<glyph unicode="a" glyph-name="a" horiz-adv-x="500" d="M99 449Q99 469 114 483T150 498Q171 498 186 484T201 449Q201 429 186 415T150 400Q129 400 114 414T99 449ZM201 449Q201 469 216 483T253 498Q275 498 290 484T305 449Q305 429 290 415T253 400Q231
400 216 414T201 449ZM303 350Q303 371 317 385T353 400Q374 400 388 386T403 350Q403 329 389 315T353 300Q332 300 318 314T303 350ZM300 249Q300 270 315 285T352 300Q373 300 388 285T403 249Q403 227 388 212T352 197Q330 197 315 212T300 249ZM300 147Q300
168 315 182T351 197Q372 197 387 183T402 147Q402 126 387 112T351 97Q330 97 315 111T300 147ZM300 49Q300 69 315 83T351 97Q371 97 386 83T401 49Q401 28 386 14T351 0Q330 0 315 14T300 49ZM199 49Q199 69 214 83T250 98Q270 98 285 84T300 49Q300 29 285
15T250 0Q229 0 214 14T199 49ZM100 49Q100 69 114 83T150 98Q170 98 184 84T199 49Q199 29 185 15T150 0Q129 0 115 14T100 49ZM0 150Q0 169 15 183T52 197Q74 197 89 183T104 150Q104 131 89 117T52 103Q30 103 15 117T0 150ZM99 247Q99 267 114 281T150 295Q171
295 186 281T201 247Q201 227 186 213T150 199Q129 199 114 213T99 247ZM201 249Q201 268 215 281T250 295Q270 295 284 282T299 249Q299 229 285 216T250 202Q230 202 216 215T201 249Z" />
<glyph unicode="b" glyph-name="b" horiz-adv-x="500" d="M0 648Q0 668 15 682T52 697Q73 697 88 683T103 648Q103 628 88 614T52 599Q30 599 15 613T0 648ZM0 548Q0 569 15 584T52 599Q73 599 88 584T103 548Q103 527 88 512T52 497Q30 497 15 512T0 548ZM0 448Q0
468 15 482T52 497Q73 497 88 483T103 448Q103 427 88 413T52 398Q30 398 15 412T0 448ZM0 349Q0 369 15 383T52 398Q73 398 88 384T103 349Q103 329 88 315T52 300Q30 300 15 314T0 349ZM0 250Q0 270 15 285T52 300Q73 300 88 285T103 250Q103 229 88 214T52 199Q30
199 15 214T0 250ZM0 149Q0 169 15 184T52 199Q73 199 88 184T103 149Q103 128 88 113T52 98Q30 98 15 113T0 149ZM0 49Q0 69 15 83T52 98Q73 98 88 84T103 49Q103 29 88 15T52 0Q30 0 15 14T0 49ZM103 50Q103 71 117 85T153 100Q173 100 187 86T202 50Q202 29
188 15T153 0Q132 0 118 14T103 50ZM202 50Q202 71 217 85T253 100Q274 100 289 86T304 50Q304 29 289 15T253 0Q232 0 217 14T202 50ZM301 148Q301 169 316 184T353 199Q375 199 390 184T405 148Q405 126 390 111T353 96Q331 96 316 111T301 148ZM298 247Q298
266 313 280T352 294Q374 294 389 280T405 247Q405 227 390 213T352 199Q329 199 314 213T298 247ZM298 346Q298 368 313 383T350 398Q372 398 387 383T402 346Q402 324 387 309T350 294Q328 294 313 309T298 346ZM201 447Q201 468 215 483T250 498Q270 498 284
483T299 447Q299 426 285 411T250 396Q230 396 216 411T201 447ZM101 449Q101 469 115 483T151 498Q172 498 186 484T201 449Q201 429 187 415T151 400Q130 400 116 414T101 449Z" />
<glyph unicode="c" glyph-name="c" horiz-adv-x="500" d="M300 349Q300 369 315 383T351 398Q371 398 386 384T401 349Q401 329 386 315T351 300Q330 300 315 314T300 349ZM200 448Q200 468 215 483T251 498Q271 498 286 483T301 448Q301 427 286 412T251 397Q230
397 215 412T200 448ZM99 450Q99 470 114 484T150 498Q170 498 185 484T200 450Q200 429 185 415T150 401Q129 401 114 415T99 450ZM0 350Q0 371 14 386T50 401Q70 401 84 386T99 350Q99 328 85 313T50 298Q29 298 15 313T0 350ZM0 248Q0 269 15 283T52 298Q74
298 89 284T104 248Q104 227 89 213T52 198Q30 198 15 212T0 248ZM0 148Q0 168 15 183T52 198Q74 198 89 183T104 148Q104 127 89 112T52 97Q30 97 15 112T0 148ZM99 47Q99 66 114 80T151 94Q172 94 187 80T202 47Q202 28 187 14T151 0Q129 0 114 14T99 47ZM202
49Q202 69 216 83T252 97Q272 97 286 83T301 49Q301 28 287 14T252 0Q231 0 217 14T202 49ZM301 148Q301 169 315 184T351 199Q371 199 385 184T400 148Q400 127 386 112T351 97Q330 97 316 112T301 148Z" />
<glyph unicode="d" glyph-name="d" horiz-adv-x="500" d="M398 648Q398 668 383 682T347 697Q325 697 310 683T295 648Q295 628 310 614T347 599Q368 599 383 613T398 648ZM398 548Q398 569 383 584T347 599Q325 599 310 584T295 548Q295 527 310 512T347 497Q368
497 383 512T398 548ZM398 448Q398 468 383 482T347 497Q325 497 310 483T295 448Q295 427 310 413T347 398Q368 398 383 412T398 448ZM398 349Q398 369 383 383T347 398Q325 398 310 384T295 349Q295 329 310 315T347 300Q368 300 383 314T398 349ZM398 250Q398
270 383 285T347 300Q325 300 310 285T295 250Q295 229 310 214T347 199Q368 199 383 214T398 250ZM398 149Q398 169 383 184T347 199Q325 199 310 184T295 149Q295 128 310 113T347 98Q368 98 383 113T398 149ZM398 49Q398 69 383 83T347 98Q325 98 310 84T295
49Q295 29 310 15T347 0Q368 0 383 14T398 49ZM295 50Q295 71 281 85T246 100Q225 100 211 86T196 50Q196 29 210 15T246 0Q266 0 280 14T295 50ZM196 50Q196 71 181 85T145 100Q124 100 109 86T94 50Q94 29 109 15T145 0Q166 0 181 14T196 50ZM97 148Q97 169 82
184T45 199Q23 199 8 184T-7 148Q-7 126 8 111T45 96Q67 96 82 111T97 148ZM100 247Q100 266 85 280T47 294Q24 294 9 280T-7 247Q-7 227 8 213T47 199Q69 199 84 213T100 247ZM100 346Q100 368 85 383T48 398Q26 398 11 383T-4 346Q-4 324 11 309T48 294Q70 294
85 309T100 346ZM197 447Q197 468 183 483T148 498Q128 498 114 483T99 447Q99 426 113 411T148 396Q168 396 182 411T197 447ZM297 449Q297 469 283 483T247 498Q226 498 212 484T197 449Q197 429 211 415T247 400Q268 400 282 414T297 449Z" />
<glyph unicode="e" glyph-name="e" horiz-adv-x="500" d="M99 447Q99 467 114 481T150 496Q171 496 186 482T201 447Q201 427 186 413T150 398Q129 398 114 412T99 447ZM201 449Q201 470 215 485T251 500Q271 500 285 485T300 449Q300 428 286 413T251 398Q230
398 216 413T201 449ZM301 349Q301 371 316 386T352 401Q373 401 388 386T403 349Q403 327 388 312T352 297Q331 297 316 312T301 349ZM301 248Q301 268 316 282T352 297Q373 297 388 283T403 248Q403 228 388 214T352 199Q331 199 316 213T301 248ZM200 248Q200
268 215 282T251 297Q271 297 286 283T301 248Q301 228 286 214T251 199Q230 199 215 213T200 248ZM101 248Q101 268 115 282T151 297Q171 297 185 283T200 248Q200 227 186 213T151 198Q130 198 116 212T101 248ZM0 247Q0 267 15 281T51 296Q71 296 86 282T101
247Q101 227 86 213T51 198Q30 198 15 212T0 247ZM0 348Q0 369 15 384T51 399Q71 399 86 384T101 348Q101 326 86 311T51 296Q30 296 15 311T0 348ZM0 148Q0 168 15 182T51 196Q72 196 87 182T102 148Q102 127 87 113T51 99Q30 99 15 113T0 148ZM101 47Q101 66
116 80T152 94Q173 94 188 80T203 47Q203 28 188 14T152 0Q131 0 116 14T101 47ZM203 49Q203 69 217 83T253 97Q274 97 288 83T303 49Q303 28 289 14T253 0Q232 0 218 14T203 49Z" />
<glyph unicode="f" glyph-name="f" horiz-adv-x="399" d="M198 649Q198 669 213 683T249 697Q270 697 285 683T300 649Q300 628 285 614T249 600Q228 600 213 614T198 649ZM100 550Q100 571 114 585T149 600Q169 600 183 586T198 550Q198 529 184 515T149 500Q129
500 115 514T100 550ZM100 451Q100 471 115 485T151 500Q172 500 187 486T202 451Q202 430 187 416T151 401Q130 401 115 415T100 451ZM99 350Q99 371 114 386T151 401Q172 401 187 386T202 350Q202 328 187 313T151 298Q129 298 114 313T99 350ZM99 249Q99 269
114 283T152 298Q174 298 189 284T205 249Q205 229 190 215T152 200Q130 200 115 214T99 249ZM98 149Q98 170 113 185T152 200Q174 200 189 185T205 149Q205 128 190 113T152 98Q129 98 114 113T98 149ZM98 49Q98 69 113 83T150 98Q172 98 187 84T202 49Q202 29
187 15T150 0Q128 0 113 14T98 49ZM198 348Q198 368 213 382T249 397Q270 397 284 383T299 348Q299 327 285 313T249 299Q228 299 213 313T198 348ZM0 349Q0 369 15 383T51 397Q71 397 86 383T101 349Q101 328 86 314T51 300Q30 300 15 314T0 349Z" />
<glyph unicode="g" glyph-name="g" horiz-adv-x="500" d="M0 -150Q0 -130 15 -116T51 -102Q72 -102 87 -116T102 -150Q102 -170 87 -184T51 -198Q30 -198 15 -184T0 -150ZM102 -150Q102 -130 117 -116T153 -102Q173 -102 188 -116T203 -150Q203 -170 188 -184T153
-198Q132 -198 117 -184T102 -150ZM203 -150Q203 -130 217 -116T252 -102Q272 -102 286 -116T301 -150Q301 -170 287 -184T252 -198Q232 -198 218 -184T203 -150ZM301 -51Q301 -30 316 -15T353 0Q374 0 389 -15T404 -51Q404 -72 389 -87T353 -102Q331 -102 316
-87T301 -51ZM300 49Q300 69 315 83T352 98Q374 98 389 84T404 49Q404 29 389 15T352 0Q330 0 315 14T300 49ZM200 49Q200 69 214 83T250 98Q271 98 285 84T300 49Q300 29 286 15T250 0Q229 0 215 14T200 49ZM98 48Q98 68 113 82T149 96Q170 96 185 82T200 48Q200
28 185 14T149 0Q128 0 113 14T98 48ZM0 147Q0 167 14 182T49 197Q69 197 83 182T98 147Q98 126 84 111T49 96Q29 96 15 111T0 147ZM0 248Q0 269 15 284T52 299Q73 299 88 284T103 248Q103 227 88 212T52 197Q30 197 15 212T0 248ZM0 348Q0 368 15 382T52 396Q73
396 88 382T103 348Q103 327 88 313T52 299Q30 299 15 313T0 348ZM97 444Q97 465 112 479T150 494Q171 494 186 480T202 444Q202 423 187 409T150 394Q128 394 113 408T97 444ZM202 448Q202 467 216 480T251 494Q271 494 285 481T300 448Q300 428 286 415T251 401Q231
401 217 414T202 448ZM300 450Q300 470 315 484T353 498Q374 498 389 484T405 450Q405 429 390 415T353 401Q331 401 316 415T300 450ZM301 349Q301 370 315 385T351 400Q371 400 385 385T400 349Q400 327 386 312T351 297Q330 297 316 312T301 349ZM301 247Q301
268 316 282T353 297Q374 297 389 283T404 247Q404 226 389 212T353 197Q331 197 316 211T301 247ZM299 148Q299 168 314 182T352 197Q373 197 388 183T404 148Q404 127 389 113T352 98Q330 98 315 112T299 148Z" />
<glyph unicode="h" glyph-name="h" horiz-adv-x="500" d="M0 649Q0 669 15 683T51 697Q72 697 87 683T102 649Q102 628 87 614T51 600Q30 600 15 614T0 649ZM0 550Q0 571 15 585T51 600Q72 600 87 586T102 550Q102 529 87 515T51 500Q30 500 15 514T0 550ZM0 450Q0
471 15 485T51 500Q71 500 86 486T101 450Q101 429 86 415T51 400Q30 400 15 414T0 450ZM0 350Q0 370 15 385T51 400Q71 400 86 385T101 350Q101 329 86 314T51 299Q30 299 15 314T0 350ZM0 248Q0 269 15 284T51 299Q72 299 87 284T102 248Q102 227 87 212T51 197Q30
197 15 212T0 248ZM0 148Q0 168 15 182T51 197Q72 197 87 183T102 148Q102 127 87 113T51 98Q30 98 15 112T0 148ZM0 49Q0 69 15 83T51 98Q71 98 86 84T101 49Q101 29 86 15T51 0Q30 0 15 14T0 49ZM301 49Q301 69 315 83T351 97Q372 97 386 83T401 49Q401 28 387
14T351 0Q330 0 316 14T301 49ZM298 148Q298 168 313 183T350 198Q371 198 386 183T401 148Q401 127 386 112T350 97Q328 97 313 112T298 148ZM298 247Q298 267 313 281T351 296Q372 296 387 282T403 247Q403 227 388 213T351 198Q329 198 314 212T298 247ZM299
348Q299 370 314 385T351 400Q373 400 388 385T403 348Q403 326 388 311T351 296Q329 296 314 311T299 348ZM199 450Q199 470 213 484T249 499Q270 499 284 485T299 450Q299 429 285 415T249 400Q228 400 214 414T199 450ZM101 449Q101 470 115 484T150 499Q170
499 184 485T199 449Q199 428 185 414T150 399Q130 399 116 413T101 449Z" />
<glyph unicode="i" glyph-name="i" horiz-adv-x="399" d="M0 49Q0 69 15 83T52 98Q73 98 88 84T103 49Q103 29 88 15T52 0Q30 0 15 14T0 49ZM103 49Q103 69 117 83T152 98Q172 98 186 84T201 49Q201 29 187 15T152 0Q132 0 118 14T103 49ZM201 49Q201 69 215 83T251
98Q272 98 286 84T301 49Q301 29 287 15T251 0Q230 0 216 14T201 49ZM0 450Q0 469 15 483T52 497Q74 497 89 483T104 450Q104 431 89 417T52 403Q30 403 15 417T0 450ZM104 449Q104 469 118 483T153 497Q173 497 187 483T201 449Q201 428 187 414T153 400Q132 400
118 414T104 449ZM98 350Q98 371 113 385T150 400Q171 400 186 386T201 350Q201 329 186 315T150 300Q128 300 113 314T98 350ZM98 249Q98 270 113 285T151 300Q172 300 187 285T203 249Q203 228 188 213T151 198Q129 198 114 213T98 249ZM98 149Q98 169 113 183T151
198Q172 198 187 184T203 149Q203 128 188 114T151 99Q129 99 114 113T98 149ZM98 648Q98 668 113 682T150 697Q172 697 187 683T202 648Q202 628 187 614T150 599Q128 599 113 613T98 648Z" />
<glyph unicode="j" glyph-name="j" horiz-adv-x="399" d="M201 649Q201 669 215 683T250 697Q270 697 284 683T299 649Q299 628 285 614T250 600Q230 600 216 614T201 649ZM100 450Q100 469 115 483T151 497Q172 497 187 483T202 450Q202 431 187 417T151 403Q130
403 115 417T100 450ZM202 449Q202 469 216 483T252 497Q272 497 286 483T301 449Q301 428 287 414T252 400Q231 400 217 414T202 449ZM199 350Q199 370 214 385T250 400Q271 400 286 385T301 350Q301 329 286 314T250 299Q229 299 214 314T199 350ZM199 250Q199
270 214 284T251 299Q273 299 288 285T303 250Q303 230 288 216T251 201Q229 201 214 215T199 250ZM198 151Q198 172 213 186T251 201Q272 201 287 187T303 151Q303 130 288 116T251 101Q229 101 214 115T198 151ZM198 51Q198 71 213 86T250 101Q271 101 286 86T301
51Q301 30 286 15T250 0Q228 0 213 15T198 51ZM198 -50Q198 -29 213 -15T250 0Q272 0 287 -14T302 -50Q302 -70 287 -84T250 -99Q228 -99 213 -85T198 -50ZM100 -149Q100 -128 114 -114T149 -99Q169 -99 183 -113T198 -149Q198 -169 184 -183T149 -198Q129 -198
115 -184T100 -149ZM0 -151Q0 -131 14 -117T50 -103Q71 -103 85 -117T100 -151Q100 -170 86 -184T50 -198Q29 -198 15 -184T0 -151ZM-102 -52Q-102 -30 -87 -15T-51 0Q-30 0 -15 -15T0 -52Q0 -73 -15 -88T-51 -103Q-72 -103 -87 -88T-102 -52Z" />
<glyph unicode="k" glyph-name="k" horiz-adv-x="500" d="M0 648Q0 668 15 682T51 697Q72 697 87 683T102 648Q102 628 87 614T51 599Q30 599 15 613T0 648ZM0 550Q0 570 15 584T51 599Q72 599 87 585T102 550Q102 529 87 515T51 500Q30 500 15 514T0 550ZM0 451Q0
471 15 485T52 500Q73 500 88 486T103 451Q103 431 88 417T52 402Q30 402 15 416T0 451ZM0 351Q0 372 15 387T52 402Q73 402 88 387T103 351Q103 329 88 314T52 299Q30 299 15 314T0 351ZM0 250Q0 270 14 284T50 299Q71 299 85 285T100 250Q100 229 86 215T50 200Q29
200 15 214T0 250ZM100 250Q100 270 114 284T150 299Q171 299 185 285T200 250Q200 229 186 215T150 200Q129 200 115 214T100 250ZM200 349Q200 369 215 383T252 398Q274 398 289 384T304 349Q304 328 289 314T252 299Q230 299 215 313T200 349ZM304 448Q304 468
318 482T353 497Q373 497 387 483T402 448Q402 427 388 413T353 398Q333 398 319 412T304 448ZM0 49Q0 69 15 83T51 98Q72 98 87 84T102 49Q102 29 87 15T51 0Q30 0 15 14T0 49ZM0 149Q0 169 15 183T51 198Q71 198 86 184T101 149Q101 128 86 114T51 99Q30 99 15
113T0 149ZM298 50Q298 70 313 84T350 99Q372 99 387 85T402 50Q402 29 387 15T350 0Q328 0 313 14T298 50ZM200 149Q200 169 214 183T249 198Q269 198 283 184T298 149Q298 128 284 114T249 99Q229 99 215 113T200 149Z" />
<glyph unicode="l" glyph-name="l" horiz-adv-x="399" d="M0 650Q0 669 15 683T51 697Q72 697 87 683T102 650Q102 630 87 616T51 602Q30 602 15 616T0 650ZM102 650Q102 669 117 683T153 697Q173 697 188 683T203 650Q203 630 188 616T153 602Q132 602 117 616T102
650ZM100 548Q100 568 115 582T151 597Q171 597 186 583T201 548Q201 528 186 514T151 499Q130 499 115 513T100 548ZM100 449Q100 469 115 484T151 499Q171 499 186 484T201 449Q201 428 186 413T151 398Q130 398 115 413T100 449ZM99 349Q99 369 114 383T150
398Q171 398 186 384T201 349Q201 328 186 314T150 299Q129 299 114 313T99 349ZM99 249Q99 269 114 284T152 299Q173 299 188 284T204 249Q204 228 189 213T152 198Q130 198 115 213T99 249ZM101 148Q101 169 116 183T153 198Q174 198 189 184T204 148Q204 127
189 113T153 98Q131 98 116 112T101 148ZM101 49Q101 69 115 83T151 98Q172 98 186 84T201 49Q201 29 187 15T151 0Q130 0 116 14T101 49ZM201 49Q201 69 216 83T252 98Q273 98 288 84T303 49Q303 29 288 15T252 0Q231 0 216 14T201 49ZM0 48Q0 68 15 82T51 96Q71
96 86 82T101 48Q101 28 86 14T51 0Q30 0 15 14T0 48Z" />
<glyph unicode="m" glyph-name="m" horiz-adv-x="600" d="M0 49Q0 69 14 83T50 98Q71 98 85 84T100 49Q100 29 86 15T50 0Q29 0 15 14T0 49ZM0 148Q0 168 14 182T50 197Q71 197 85 183T100 148Q100 127 86 113T50 98Q29 98 15 112T0 148ZM0 247Q0 267 15 281T52
296Q74 296 89 282T104 247Q104 226 89 212T52 197Q30 197 15 211T0 247ZM0 347Q0 368 15 383T52 398Q74 398 89 383T104 347Q104 326 89 311T52 296Q30 296 15 311T0 347ZM0 448Q0 468 15 482T51 497Q71 497 86 483T101 448Q101 427 86 413T51 398Q30 398 15 412T0
448ZM101 450Q101 469 116 483T152 497Q172 497 187 483T202 450Q202 430 187 416T152 402Q131 402 116 416T101 450ZM202 351Q202 372 216 387T252 402Q273 402 287 387T302 351Q302 330 288 315T252 300Q231 300 217 315T202 351ZM199 250Q199 271 214 285T251
300Q272 300 287 286T302 250Q302 229 287 215T251 200Q229 200 214 214T199 250ZM199 151Q199 171 214 185T251 200Q272 200 287 186T302 151Q302 130 287 116T251 101Q229 101 214 115T199 151ZM199 51Q199 71 214 86T251 101Q272 101 287 86T302 51Q302 30 287
15T251 0Q229 0 214 15T199 51ZM398 49Q398 69 413 83T451 98Q472 98 487 84T503 49Q503 29 488 15T451 0Q429 0 414 14T398 49ZM399 149Q399 169 414 184T451 199Q473 199 488 184T503 149Q503 128 488 113T451 98Q429 98 414 113T399 149ZM399 248Q399 268 414
282T451 297Q473 297 488 283T503 248Q503 228 488 214T451 199Q429 199 414 213T399 248ZM400 348Q400 369 415 384T452 399Q473 399 488 384T503 348Q503 327 488 312T452 297Q430 297 415 312T400 348ZM301 448Q301 468 315 482T351 497Q371 497 385 483T400
448Q400 428 386 414T351 399Q330 399 316 413T301 448Z" />
<glyph unicode="n" glyph-name="n" horiz-adv-x="500" d="M0 48Q0 68 15 82T52 96Q73 96 88 82T103 48Q103 28 88 14T52 0Q30 0 15 14T0 48ZM0 147Q0 167 15 182T52 197Q73 197 88 182T103 147Q103 126 88 111T52 96Q30 96 15 111T0 147ZM0 248Q0 268 15 283T51
298Q71 298 86 283T101 248Q101 227 86 212T51 197Q30 197 15 212T0 248ZM0 347Q0 367 15 381T51 396Q71 396 86 382T101 347Q101 327 86 313T51 298Q30 298 15 312T0 347ZM0 447Q0 468 15 483T51 498Q71 498 86 483T101 447Q101 426 86 411T51 396Q30 396 15 411T0
447ZM102 449Q102 469 116 483T151 498Q171 498 185 484T200 449Q200 428 186 414T151 399Q131 399 117 413T102 449ZM200 448Q200 468 215 482T251 496Q271 496 286 482T301 448Q301 427 286 413T251 399Q230 399 215 413T200 448ZM301 349Q301 369 316 383T352
398Q373 398 388 384T403 349Q403 329 388 315T352 300Q331 300 316 314T301 349ZM298 250Q298 270 313 285T351 300Q372 300 387 285T403 250Q403 229 388 214T351 199Q329 199 314 214T298 250ZM298 149Q298 170 313 184T350 199Q371 199 386 185T401 149Q401
128 386 114T350 99Q328 99 313 113T298 149ZM301 50Q301 70 315 84T351 99Q372 99 386 85T401 50Q401 29 387 15T351 0Q330 0 316 14T301 50Z" />
<glyph unicode="o" glyph-name="o" horiz-adv-x="500" d="M0 347Q0 366 15 380T51 394Q72 394 87 380T102 347Q102 328 87 314T51 300Q30 300 15 314T0 347ZM0 250Q0 270 15 285T51 300Q72 300 87 285T102 250Q102 229 87 214T51 199Q30 199 15 214T0 250ZM0 150Q0
170 15 184T51 199Q72 199 87 185T102 150Q102 129 87 115T51 100Q30 100 15 114T0 150ZM102 50Q102 71 116 85T152 100Q172 100 186 86T201 50Q201 29 187 15T152 0Q131 0 117 14T102 50ZM201 49Q201 69 216 83T252 98Q272 98 287 84T302 49Q302 29 287 15T252
0Q231 0 216 14T201 49ZM302 148Q302 168 316 182T352 197Q373 197 387 183T402 148Q402 127 388 113T352 98Q331 98 317 112T302 148ZM299 247Q299 268 314 282T351 297Q372 297 387 283T402 247Q402 226 387 212T351 197Q329 197 314 211T299 247ZM299 348Q299
368 314 383T351 398Q372 398 387 383T402 348Q402 327 387 312T351 297Q329 297 314 312T299 348ZM200 451Q200 470 215 484T251 498Q272 498 287 484T302 451Q302 431 287 417T251 403Q230 403 215 417T200 451ZM99 449Q99 469 114 483T150 498Q170 498 185 484T200
449Q200 428 185 414T150 399Q129 399 114 413T99 449Z" />
<glyph unicode="p" glyph-name="p" horiz-adv-x="500" d="M0 -150Q0 -130 15 -116T51 -102Q72 -102 87 -116T102 -150Q102 -170 87 -184T51 -198Q30 -198 15 -184T0 -150ZM0 -51Q0 -30 15 -15T51 0Q72 0 87 -15T102 -51Q102 -72 87 -87T51 -102Q30 -102 15 -87T0
-51ZM0 50Q0 71 15 85T52 100Q74 100 89 86T104 50Q104 29 89 15T52 0Q30 0 15 14T0 50ZM0 149Q0 169 15 183T52 197Q74 197 89 183T104 149Q104 128 89 114T52 100Q30 100 15 114T0 149ZM0 247Q0 267 15 281T51 296Q71 296 86 282T101 247Q101 226 86 212T51 197Q30
197 15 211T0 247ZM0 347Q0 368 15 383T51 398Q71 398 86 383T101 347Q101 326 86 311T51 296Q30 296 15 311T0 347ZM0 448Q0 469 15 483T52 498Q73 498 88 484T103 448Q103 427 88 413T52 398Q30 398 15 412T0 448ZM103 449Q103 469 117 483T152 498Q172 498 186
484T201 449Q201 429 187 415T152 400Q132 400 118 414T103 449ZM201 449Q201 469 216 483T252 498Q273 498 288 484T303 449Q303 429 288 415T252 400Q231 400 216 414T201 449ZM304 351Q304 372 318 387T353 402Q373 402 387 387T401 351Q401 329 387 314T353
299Q332 299 318 314T304 351ZM299 249Q299 269 314 284T350 299Q371 299 386 284T401 249Q401 228 386 213T350 198Q329 198 314 213T299 249ZM299 149Q299 169 314 183T351 198Q372 198 387 184T402 149Q402 128 387 114T351 99Q329 99 314 113T299 149ZM198
49Q198 69 213 83T251 98Q273 98 288 84T304 49Q304 29 289 15T251 0Q229 0 214 14T198 49ZM105 49Q105 69 118 83T152 98Q171 98 184 84T198 49Q198 29 185 15T152 0Q132 0 119 14T105 49Z" />
<glyph unicode="q" glyph-name="q" horiz-adv-x="500" d="M402 -150Q402 -130 387 -116T351 -102Q330 -102 315 -116T300 -150Q300 -170 315 -184T351 -198Q372 -198 387 -184T402 -150ZM402 -51Q402 -30 387 -15T351 0Q330 0 315 -15T300 -51Q300 -72 315 -87T351
-102Q372 -102 387 -87T402 -51ZM402 50Q402 71 387 85T350 100Q328 100 313 86T298 50Q298 29 313 15T350 0Q372 0 387 14T402 50ZM402 149Q402 169 387 183T350 197Q328 197 313 183T298 149Q298 128 313 114T350 100Q372 100 387 114T402 149ZM402 247Q402 267
387 281T352 296Q331 296 316 282T301 247Q301 226 316 212T352 197Q372 197 387 211T402 247ZM402 347Q402 368 387 383T352 398Q331 398 316 383T301 347Q301 326 316 311T352 296Q372 296 387 311T402 347ZM402 448Q402 469 387 483T351 498Q329 498 314 484T299
448Q299 427 314 413T351 398Q372 398 387 412T402 448ZM299 449Q299 469 285 483T250 498Q230 498 216 484T201 449Q201 429 215 415T250 400Q270 400 284 414T299 449ZM201 449Q201 469 186 483T150 498Q129 498 114 484T99 449Q99 429 114 415T150 400Q171 400
186 414T201 449ZM98 351Q98 372 84 387T50 402Q29 402 15 387T1 351Q1 329 15 314T50 299Q70 299 84 314T98 351ZM103 249Q103 269 88 284T52 299Q31 299 16 284T1 249Q1 228 16 213T52 198Q73 198 88 213T103 249ZM103 149Q103 169 88 183T52 198Q30 198 15 184T0
149Q0 128 15 114T52 99Q73 99 88 113T103 149ZM204 49Q204 69 189 83T151 98Q129 98 114 84T98 49Q98 29 113 15T151 0Q173 0 188 14T204 49ZM297 49Q297 69 284 83T251 98Q231 98 218 84T204 49Q204 29 217 15T251 0Q270 0 283 14T297 49Z" />
<glyph unicode="r" glyph-name="r" horiz-adv-x="500" d="M0 50Q0 71 14 85T50 100Q71 100 85 86T100 50Q100 29 86 15T50 0Q29 0 15 14T0 50ZM0 149Q0 169 14 183T50 198Q71 198 85 184T100 149Q100 129 86 115T50 100Q29 100 15 114T0 149ZM0 247Q0 267 15 281T52
295Q74 295 89 281T104 247Q104 226 89 212T52 198Q30 198 15 212T0 247ZM0 346Q0 367 15 382T52 397Q74 397 89 382T104 346Q104 325 89 310T52 295Q30 295 15 310T0 346ZM0 448Q0 468 15 483T51 498Q72 498 87 483T102 448Q102 427 87 412T51 397Q30 397 15 412T0
448ZM301 450Q301 469 315 483T350 497Q370 497 384 483T398 450Q398 430 384 416T350 402Q329 402 315 416T301 450ZM200 449Q200 469 215 483T251 497Q272 497 287 483T302 449Q302 428 287 414T251 400Q230 400 215 414T200 449ZM104 349Q104 370 118 385T152
400Q172 400 186 385T200 349Q200 328 186 313T152 298Q132 298 118 313T104 349Z" />
<glyph unicode="s" glyph-name="s" horiz-adv-x="500" d="M0 50Q0 70 15 84T51 99Q71 99 86 85T101 50Q101 29 86 15T51 0Q30 0 15 14T0 50ZM101 50Q101 70 116 84T152 99Q173 99 188 85T203 50Q203 29 188 15T152 0Q131 0 116 14T101 50ZM203 48Q203 68 217 82T253
96Q274 96 288 82T303 48Q303 28 289 14T253 0Q232 0 218 14T203 48ZM303 148Q303 169 318 184T354 199Q374 199 389 184T404 148Q404 126 389 111T354 96Q333 96 318 111T303 148ZM198 249Q198 269 213 283T249 298Q269 298 284 284T299 249Q299 228 284 214T249
199Q228 199 213 213T198 249ZM99 249Q99 269 113 283T149 298Q169 298 183 284T198 249Q198 228 184 214T149 199Q128 199 114 213T99 249ZM0 348Q0 368 14 382T48 397Q68 397 82 383T96 348Q96 327 82 313T48 298Q28 298 14 312T0 348ZM92 446Q92 467 107 481T144
496Q166 496 181 482T196 446Q196 425 181 411T144 396Q122 396 107 410T92 446ZM196 447Q196 467 211 481T248 496Q269 496 284 482T299 447Q299 427 284 413T248 398Q226 398 211 412T196 447ZM298 447Q298 467 313 481T351 496Q373 496 388 482T404 447Q404
427 389 413T351 398Q329 398 314 412T298 447Z" />
<glyph unicode="t" glyph-name="t" horiz-adv-x="399" d="M99 648Q99 668 114 682T151 697Q172 697 187 683T202 648Q202 628 187 614T151 599Q129 599 114 613T99 648ZM99 549Q99 570 114 584T151 599Q172 599 187 585T202 549Q202 528 187 514T151 499Q129 499
114 513T99 549ZM99 450Q99 470 114 484T151 499Q173 499 188 485T203 450Q203 429 188 415T151 400Q129 400 114 414T99 450ZM99 350Q99 370 114 385T151 400Q173 400 188 385T203 350Q203 329 188 314T151 299Q129 299 114 314T99 350ZM0 349Q0 369 14 383T50
398Q70 398 84 384T99 349Q99 328 85 314T50 299Q29 299 15 313T0 349ZM200 49Q200 69 215 83T251 98Q271 98 286 84T301 49Q301 29 286 15T251 0Q230 0 215 14T200 49ZM99 148Q99 169 114 183T150 198Q170 198 185 184T200 148Q200 127 185 113T150 98Q129 98
114 112T99 148ZM99 248Q99 268 114 282T151 297Q173 297 188 283T203 248Q203 227 188 213T151 198Q129 198 114 212T99 248ZM203 346Q203 366 217 380T253 395Q274 395 288 381T303 346Q303 326 289 312T253 297Q232 297 218 311T203 346Z" />
<glyph unicode="u" glyph-name="u" horiz-adv-x="500" d="M0 447Q0 467 14 481T50 495Q71 495 85 481T100 447Q100 426 86 412T50 398Q29 398 15 412T0 447ZM0 349Q0 369 15 383T51 398Q71 398 86 384T101 349Q101 329 86 315T51 300Q30 300 15 314T0 349ZM0 249Q0
270 15 285T51 300Q71 300 86 285T101 249Q101 228 86 213T51 198Q30 198 15 213T0 249ZM0 149Q0 169 15 183T51 198Q71 198 86 184T101 149Q101 129 86 115T51 100Q30 100 15 114T0 149ZM101 50Q101 71 115 85T151 100Q172 100 186 86T201 50Q201 29 187 15T151
0Q130 0 116 14T101 50ZM201 49Q201 69 215 83T250 98Q270 98 284 84T298 49Q298 29 284 15T250 0Q229 0 215 14T201 49ZM301 50Q301 70 315 84T350 99Q370 99 384 85T398 50Q398 29 384 15T350 0Q329 0 315 14T301 50ZM301 149Q301 169 316 183T352 198Q372 198
387 184T402 149Q402 128 387 114T352 99Q331 99 316 113T301 149ZM298 247Q298 267 313 281T350 296Q372 296 387 282T402 247Q402 227 387 213T350 198Q328 198 313 212T298 247ZM298 347Q298 367 313 382T350 397Q372 397 387 382T402 347Q402 326 387 311T350
296Q328 296 313 311T298 347ZM298 447Q298 468 313 482T350 497Q372 497 387 483T402 447Q402 426 387 412T350 397Q328 397 313 411T298 447Z" />
<glyph unicode="v" glyph-name="v" horiz-adv-x="603" d="M0 447Q0 467 15 481T51 495Q72 495 87 481T102 447Q102 426 87 412T51 398Q30 398 15 412T0 447ZM0 349Q0 369 15 383T51 398Q72 398 87 384T102 349Q102 329 87 315T51 300Q30 300 15 314T0 349ZM0 250Q0
270 15 285T51 300Q71 300 86 285T101 250Q101 229 86 214T51 199Q30 199 15 214T0 250ZM101 150Q101 170 116 184T152 199Q172 199 187 185T202 150Q202 130 187 116T152 101Q131 101 116 115T101 150ZM202 51Q202 71 216 86T252 101Q272 101 286 86T301 51Q301
30 287 15T252 0Q231 0 217 15T202 51ZM299 147Q299 169 314 184T352 199Q373 199 388 184T404 147Q404 125 389 110T352 95Q330 95 315 110T299 147ZM404 249Q404 269 418 283T454 298Q474 298 488 284T503 249Q503 228 489 214T454 199Q433 199 419 213T404 249ZM401
348Q401 368 416 382T452 397Q473 397 488 383T503 348Q503 327 488 313T452 298Q431 298 416 312T401 348ZM401 446Q401 466 415 480T451 495Q472 495 486 481T501 446Q501 426 487 412T451 397Q430 397 416 411T401 446Z" />
<glyph unicode="w" glyph-name="w" horiz-adv-x="600" d="M0 446Q0 465 15 479T51 493Q71 493 86 479T101 446Q101 426 86 412T51 398Q30 398 15 412T0 446ZM0 350Q0 370 15 384T52 398Q73 398 88 384T103 350Q103 329 88 315T52 301Q30 301 15 315T0 350ZM0 250Q0
271 15 286T52 301Q73 301 88 286T103 250Q103 229 88 214T52 199Q30 199 15 214T0 250ZM0 149Q0 169 14 184T49 199Q69 199 83 184T98 149Q98 128 84 113T49 98Q29 98 15 113T0 149ZM0 49Q0 69 14 83T49 98Q69 98 83 84T98 49Q98 29 84 15T49 0Q29 0 15 14T0 49ZM200
250Q200 270 215 284T251 299Q271 299 286 285T301 250Q301 229 286 215T251 200Q230 200 215 214T200 250ZM101 149Q101 170 115 185T151 200Q171 200 185 185T200 149Q200 128 186 113T151 98Q130 98 116 113T101 149ZM297 150Q297 171 312 186T349 201Q371 201
386 186T401 150Q401 129 386 114T349 99Q327 99 312 114T297 150ZM401 50Q401 70 415 84T451 99Q472 99 486 85T501 50Q501 29 487 15T451 0Q430 0 416 14T401 50ZM398 449Q398 469 413 483T451 497Q472 497 487 483T503 449Q503 428 488 414T451 400Q429 400
414 414T398 449ZM399 350Q399 371 414 385T451 400Q473 400 488 386T503 350Q503 329 488 315T451 300Q429 300 414 314T399 350ZM399 250Q399 271 414 285T451 300Q472 300 487 286T502 250Q502 229 487 215T451 200Q429 200 414 214T399 250ZM402 150Q402 171
416 185T452 200Q473 200 487 186T502 150Q502 129 488 115T452 100Q431 100 417 114T402 150Z" />
<glyph unicode="x" glyph-name="x" horiz-adv-x="600" d="M0 50Q0 69 15 82T51 95Q71 95 86 82T101 50Q101 31 86 18T51 5Q30 5 15 18T0 50ZM101 147Q101 168 116 183T152 198Q172 198 187 183T202 147Q202 125 187 110T152 95Q131 95 116 110T101 147ZM202 249Q202
269 217 284T253 299Q273 299 288 284T303 249Q303 228 288 213T253 198Q232 198 217 213T202 249ZM303 350Q303 370 317 385T353 400Q374 400 388 385T403 350Q403 329 389 314T353 299Q332 299 318 314T303 350ZM403 449Q403 469 417 483T452 497Q472 497 486
483T501 449Q501 428 487 414T452 400Q432 400 418 414T403 449ZM0 448Q0 467 15 481T51 495Q71 495 86 481T101 448Q101 428 86 414T51 400Q30 400 15 414T0 448ZM102 350Q102 370 117 384T153 399Q173 399 188 385T203 350Q203 330 188 316T153 301Q132 301 117
315T102 350ZM299 151Q299 171 314 185T351 200Q372 200 387 186T402 151Q402 131 387 117T351 102Q329 102 314 116T299 151ZM402 51Q402 72 417 87T453 102Q473 102 488 87T503 51Q503 30 488 15T453 0Q432 0 417 15T402 51Z" />
<glyph unicode="y" glyph-name="y" horiz-adv-x="500" d="M0 448Q0 468 15 482T51 496Q71 496 86 482T101 448Q101 427 86 413T51 399Q30 399 15 413T0 448ZM0 349Q0 370 15 384T51 399Q71 399 86 385T101 349Q101 328 86 314T51 299Q30 299 15 313T0 349ZM0 250Q0
270 15 284T52 299Q73 299 88 285T103 250Q103 229 88 215T52 200Q30 200 15 214T0 250ZM0 150Q0 170 15 185T52 200Q73 200 88 185T103 150Q103 129 88 114T52 99Q30 99 15 114T0 150ZM0 -150Q0 -130 15 -116T51 -102Q71 -102 86 -116T101 -150Q101 -170 86 -184T51
-198Q30 -198 15 -184T0 -150ZM101 -150Q101 -130 116 -116T152 -102Q173 -102 188 -116T203 -150Q203 -170 188 -184T152 -198Q131 -198 116 -184T101 -150ZM203 -150Q203 -130 217 -116T253 -102Q273 -102 287 -116T302 -150Q302 -170 288 -184T253 -198Q232
-198 218 -184T203 -150ZM302 -51Q302 -30 317 -15T353 0Q373 0 388 -15T403 -51Q403 -72 388 -87T353 -102Q332 -102 317 -87T302 -51ZM299 49Q299 69 314 83T351 98Q373 98 388 84T403 49Q403 29 388 15T351 0Q329 0 314 14T299 49ZM299 148Q299 168 314 182T351
197Q373 197 388 183T403 148Q403 127 388 113T351 98Q329 98 314 112T299 148ZM301 248Q301 268 316 283T352 298Q373 298 388 283T403 248Q403 227 388 212T352 197Q331 197 316 212T301 248ZM301 347Q301 367 316 381T352 395Q372 395 387 381T402 347Q402 326
387 312T352 298Q331 298 316 312T301 347ZM298 447Q298 468 313 483T350 498Q372 498 387 483T402 447Q402 425 387 410T350 395Q328 395 313 410T298 447ZM99 48Q99 68 114 82T151 96Q172 96 187 82T202 48Q202 28 187 14T151 0Q129 0 114 14T99 48ZM202 48Q202
68 216 82T252 96Q272 96 286 82T301 48Q301 28 287 14T252 0Q231 0 217 14T202 48Z" />
<glyph unicode="z" glyph-name="z" horiz-adv-x="399" d="M200 48Q200 67 215 81T251 95Q271 95 286 81T301 48Q301 28 286 14T251 0Q230 0 215 14T200 48ZM101 48Q101 67 115 81T151 95Q171 95 185 81T200 48Q200 28 186 14T151 0Q130 0 116 14T101 48ZM0 47Q0
66 15 80T51 94Q71 94 86 80T101 47Q101 28 86 14T51 0Q30 0 15 14T0 47ZM0 146Q0 168 14 183T49 198Q69 198 83 183T98 146Q98 124 84 109T49 94Q29 94 15 109T0 146ZM98 247Q98 267 113 281T150 296Q171 296 186 282T201 247Q201 227 186 213T150 198Q128 198
113 212T98 247ZM201 346Q201 366 216 380T252 395Q272 395 287 381T302 346Q302 325 287 311T252 296Q231 296 216 310T201 346ZM201 446Q201 466 216 481T252 496Q272 496 287 481T302 446Q302 425 287 410T252 395Q231 395 216 410T201 446ZM102 448Q102 468
116 482T152 496Q172 496 186 482T201 448Q201 427 187 413T152 399Q131 399 117 413T102 448ZM0 448Q0 468 15 482T51 497Q72 497 87 483T102 448Q102 428 87 414T51 399Q30 399 15 413T0 448Z" />
<glyph unicode="{" glyph-name="braceleft" horiz-adv-x="399" d="M199 649Q199 669 214 683T251 697Q272 697 287 683T302 649Q302 628 287 614T251 600Q229 600 214 614T199 649ZM99 551Q99 571 113 585T149 600Q170 600 184 586T199 551Q199 530 185 516T149
501Q128 501 114 515T99 551ZM99 452Q99 472 114 486T151 501Q172 501 187 487T202 452Q202 431 187 417T151 402Q129 402 114 416T99 452ZM0 351Q0 371 15 385T51 399Q72 399 87 385T102 351Q102 330 87 316T51 302Q30 302 15 316T0 351ZM101 251Q101 272 116
287T152 302Q172 302 187 287T202 251Q202 229 187 214T152 199Q131 199 116 214T101 251ZM100 150Q100 170 115 184T151 199Q172 199 187 185T202 150Q202 129 187 115T151 100Q130 100 115 114T100 150ZM201 51Q201 71 216 86T252 101Q273 101 288 86T303 51Q303
30 288 15T252 0Q231 0 216 15T201 51Z" />
<glyph unicode="|" glyph-name="bar" horiz-adv-x="198" d="M0 648Q0 668 15 682T52 697Q73 697 88 683T103 648Q103 628 88 614T52 599Q30 599 15 613T0 648ZM0 550Q0 570 15 584T52 599Q73 599 88 585T103 550Q103 529 88 515T52 500Q30 500 15 514T0 550ZM0
449Q0 470 15 485T51 500Q71 500 86 485T101 449Q101 428 86 413T51 398Q30 398 15 413T0 449ZM0 349Q0 369 15 383T51 398Q71 398 86 384T101 349Q101 328 86 314T51 299Q30 299 15 313T0 349ZM0 249Q0 269 15 284T51 299Q72 299 87 284T102 249Q102 228 87 213T51
198Q30 198 15 213T0 249ZM0 149Q0 169 15 183T51 198Q72 198 87 184T102 149Q102 128 87 114T51 99Q30 99 15 113T0 149ZM0 50Q0 70 15 84T51 99Q72 99 87 85T102 50Q102 29 87 15T51 0Q30 0 15 14T0 50Z" />
<glyph unicode="}" glyph-name="braceright" horiz-adv-x="399" d="M0 649Q0 669 15 683T51 697Q72 697 87 683T102 649Q102 628 87 614T51 600Q30 600 15 614T0 649ZM102 550Q102 571 116 585T152 600Q173 600 187 586T202 550Q202 529 188 515T152 500Q131 500
117 514T102 550ZM100 449Q100 470 115 485T151 500Q172 500 187 485T202 449Q202 427 187 412T151 397Q130 397 115 412T100 449ZM201 350Q201 370 216 385T252 400Q272 400 287 385T302 350Q302 329 287 314T252 299Q231 299 216 314T201 350ZM99 250Q99 271
114 286T150 301Q171 301 186 286T201 250Q201 229 186 214T150 199Q129 199 114 214T99 250ZM99 150Q99 170 114 184T151 199Q172 199 187 185T202 150Q202 130 187 116T151 101Q129 101 114 115T99 150ZM0 49Q0 69 15 83T51 98Q72 98 87 84T102 49Q102 29 87
15T51 0Q30 0 15 14T0 49Z" />
<glyph unicode="~" glyph-name="asciitilde" horiz-adv-x="500" d="M0 550Q0 569 15 582T52 596Q73 596 88 583T103 550Q103 531 88 518T52 504Q30 504 15 517T0 550ZM103 647Q103 667 117 682T153 697Q174 697 188 682T203 647Q203 626 189 611T153 596Q132 596
118 611T103 647ZM301 648Q301 668 316 682T353 697Q374 697 389 683T404 648Q404 628 389 614T353 599Q331 599 316 613T301 648ZM198 550Q198 570 213 584T250 599Q271 599 286 585T301 550Q301 530 286 516T250 501Q228 501 213 515T198 550Z" />
</font>
</defs>
</svg>
